<?xml version="1.0" standalone="no"?>
<!DOCTYPE svg PUBLIC "-//W3C//DTD SVG 20010904//EN"
 "http://www.w3.org/TR/2001/REC-SVG-20010904/DTD/svg10.dtd">
<svg version="1.0" xmlns="http://www.w3.org/2000/svg"
 width="481.000000pt" height="481.000000pt" viewBox="0 0 481.000000 481.000000"
 preserveAspectRatio="xMidYMid meet">
<metadata>
Created by potrace 1.11, written by Peter Selinger 2001-2013
</metadata>
<g transform="translate(0.000000,481.000000) scale(0.100000,-0.100000)"
fill="#000000" stroke="none">
<path d="M3122 4008 c-170 -205 -320 -384 -332 -398 -12 -14 -30 -35 -40 -47
-10 -12 -26 -33 -35 -46 l-16 -25 38 1 c135 0 266 -57 381 -166 34 -33 62 -57
62 -53 0 4 14 67 31 139 17 73 32 139 34 147 2 8 11 47 20 85 9 39 18 79 21
90 8 42 13 64 48 205 19 80 37 157 40 170 6 34 56 242 61 258 2 6 3 12 1 12
-2 0 -143 -168 -314 -372z"/>
<path d="M2391 3259 c-170 -29 -298 -150 -332 -311 -21 -96 9 -280 55 -337 8
-11 3 -19 -24 -39 -60 -44 -155 -145 -185 -196 -53 -90 -66 -140 -71 -273 -10
-279 170 -475 461 -501 249 -21 425 20 558 130 l47 39 83 -63 c133 -104 216
-160 226 -154 5 4 43 51 84 105 l74 99 -148 111 c-82 62 -149 118 -149 127 0
8 9 32 20 54 39 76 73 239 71 336 0 23 4 31 17 31 9 0 40 1 68 2 l52 1 -2 98
-1 97 -255 0 -255 0 -2 -92 c-1 -51 1 -93 5 -94 95 -6 123 -22 117 -62 -2 -12
-6 -42 -9 -67 -8 -61 -32 -126 -46 -122 -32 7 -307 281 -379 377 -83 110 -123
201 -128 287 -3 63 -1 79 19 112 41 69 126 96 243 75 93 -16 105 -34 105 -154
l0 -93 28 4 c38 5 140 13 185 13 l37 1 -2 187 -3 187 -59 23 c-61 25 -149 50
-208 59 -67 10 -245 12 -297 3z m-101 -911 c52 -71 207 -230 328 -337 39 -35
72 -68 72 -72 0 -16 -104 -77 -156 -92 -64 -19 -185 -15 -253 8 -138 46 -204
214 -146 374 20 54 96 151 119 151 7 0 23 -15 36 -32z"/>
<path d="M4185 3224 c-227 -47 -379 -174 -450 -381 -35 -101 -37 -114 -41
-283 -2 -122 1 -174 16 -243 53 -253 196 -397 451 -453 55 -12 252 -11 332 2
83 13 192 47 212 66 14 12 14 348 0 349 -10 2 -23 3 -134 12 l-61 5 0 -88 c0
-49 -3 -96 -6 -105 -24 -62 -261 -69 -372 -11 -127 66 -193 233 -187 470 3
134 17 200 58 284 68 141 210 206 393 181 50 -7 95 -30 92 -48 0 -3 0 -46 1
-95 l1 -89 98 6 c53 4 99 7 102 7 3 0 5 77 5 170 0 140 -3 173 -15 181 -22 14
-168 57 -220 65 -80 11 -213 10 -275 -2z"/>
<path d="M615 3202 c-61 -7 -152 -34 -210 -64 -174 -87 -271 -226 -315 -452
-12 -61 -16 -274 -6 -323 3 -15 8 -44 11 -63 19 -120 75 -238 151 -313 56 -56
163 -112 245 -128 l59 -12 -6 -36 c-3 -20 -10 -53 -14 -73 -8 -37 -7 -38 19
-31 14 4 58 6 96 6 78 0 151 -23 361 -111 121 -51 193 -69 317 -79 52 -4 67
-2 68 8 0 8 2 23 4 34 1 11 6 48 10 83 l7 62 -66 1 c-36 1 -69 2 -73 3 -5 1
-24 6 -43 10 -19 5 -78 30 -130 56 -106 54 -176 76 -245 80 -16 1 -23 4 -15 7
126 46 241 131 299 222 35 54 75 149 85 202 3 19 9 45 12 59 3 14 7 78 9 143
5 194 -33 364 -107 480 -63 99 -196 191 -313 217 -53 11 -160 18 -210 12z
m110 -213 c135 -24 198 -95 247 -278 30 -110 29 -307 -1 -414 -38 -137 -80
-200 -159 -237 -52 -25 -71 -29 -127 -31 -235 -9 -354 158 -353 496 0 180 35
290 117 378 74 79 161 106 276 86z"/>
<path d="M1750 1428 c-19 -79 -35 -147 -36 -153 -1 -5 -11 -48 -22 -95 -79
-337 -158 -675 -168 -720 -6 -28 -6 -28 56 50 25 30 47 57 50 60 3 3 107 127
230 275 264 316 239 286 334 400 74 88 75 90 48 92 -179 16 -306 73 -413 185
l-46 48 -33 -142z"/>
</g>
</svg>
