<?xml version="1.0" encoding="utf-8"?>
<!-- Generator: Adobe Illustrator 16.0.0, SVG Export Plug-In . SVG Version: 6.00 Build 0)  -->
<!DOCTYPE svg PUBLIC "-//W3C//DTD SVG 1.1//EN" "http://www.w3.org/Graphics/SVG/1.1/DTD/svg11.dtd">
<svg version="1.1" xmlns="http://www.w3.org/2000/svg" xmlns:xlink="http://www.w3.org/1999/xlink" x="0px" y="0px"
	 width="490.119px" height="233.182px" viewBox="0 0 490.119 233.182" enable-background="new 0 0 490.119 233.182"
	 xml:space="preserve">
<g id="Cosy">
	<g>
		<circle fill="none" cx="244.862" cy="111.956" r="100.833"/>
		<path fill="#654052" d="M154.755,64.641c0.277,0.818,0.137,1.72-0.289,2.583l-1.479,2.996l-8.3-4.096l1.479-2.996
			c0.425-0.863,1.056-1.523,1.874-1.8c1.393-0.473,2.489,0.185,3.737,0.8C153.024,62.743,154.282,63.248,154.755,64.641z
			 M148.648,63.034c-0.476,0.113-0.835,0.399-1.111,0.959l-0.604,1.224l5.409,2.669l0.604-1.224c0.276-0.56,0.285-1.019,0.085-1.465
			c-0.224-0.487-0.795-0.827-2.054-1.449C149.718,63.127,149.17,62.915,148.648,63.034z"/>
		<path fill="#654052" d="M158.766,59.434l-7.855-4.9L151.868,53l7.855,4.9L158.766,59.434z"/>
		<path fill="#654052" d="M164.587,51.059c-0.852,1.116-1.737,1.781-3.022,1.944l-0.22-1.64c0.82-0.11,1.456-0.622,1.977-1.303
			c0.647-0.847,0.674-1.546,0.085-1.996c-0.258-0.197-0.53-0.291-0.793-0.246c-0.245,0.042-0.443,0.152-0.755,0.454l-0.802,0.794
			c-0.574,0.559-1.125,0.874-1.698,0.96c-0.62,0.083-1.229-0.104-1.849-0.578c-1.312-1.002-1.49-2.675-0.275-4.266
			c0.773-1.013,1.581-1.557,2.672-1.721l0.205,1.595c-0.799,0.125-1.287,0.636-1.658,1.122c-0.583,0.765-0.444,1.46,0.062,1.847
			c0.186,0.142,0.43,0.229,0.692,0.185c0.245-0.042,0.54-0.193,0.81-0.461l0.787-0.773c0.606-0.601,1.115-0.882,1.641-0.971
			c0.671-0.108,1.343,0.126,1.994,0.623C165.864,47.717,165.762,49.52,164.587,51.059z"/>
		<path fill="#654052" d="M172.288,42.066c-0.703,0.731-1.541,1.079-2.459,1.097c-1.323,0.026-2.139-0.793-3.291-1.901
			s-2.004-1.89-2.031-3.212c-0.018-0.918,0.296-1.771,0.998-2.501c1.197-1.246,2.846-1.537,4.467-0.429l-1.27,1.321
			c-0.66-0.382-1.396-0.44-2.027,0.215c-0.342,0.356-0.49,0.772-0.454,1.167c0.038,0.523,0.284,0.904,1.568,2.137
			s1.674,1.464,2.198,1.482c0.396,0.02,0.806-0.145,1.148-0.501c0.63-0.656,0.542-1.389,0.134-2.034l1.27-1.321
			C173.709,39.162,173.476,40.83,172.288,42.066z"/>
		<path fill="#654052" d="M182.173,31.746c-0.089,0.915-0.471,1.699-1.284,2.368c-0.813,0.668-1.667,0.899-2.582,0.81
			c-1.317-0.129-2.032-1.039-3.047-2.274c-1.016-1.235-1.771-2.112-1.642-3.429c0.089-0.915,0.48-1.708,1.293-2.376
			c0.813-0.668,1.657-0.891,2.572-0.802c1.317,0.128,2.042,1.03,3.057,2.266C181.557,29.543,182.302,30.429,182.173,31.746z
			 M177.144,27.737c-0.391-0.066-0.826,0.04-1.207,0.353c-0.382,0.314-0.579,0.729-0.59,1.125c-0.023,0.524,0.179,0.913,1.31,2.289
			s1.474,1.649,1.992,1.728c0.391,0.066,0.836-0.048,1.217-0.361c0.382-0.314,0.569-0.72,0.58-1.116
			c0.023-0.524-0.169-0.921-1.3-2.297S177.663,27.815,177.144,27.737z"/>
		<path fill="#654052" d="M190.662,26.913l-1.135,0.734l-7.594-6.107l1.571-1.018l4.838,4.052l-1.718-6.073l1.582-1.024
			L190.662,26.913z"/>
		<path fill="#654052" d="M197.41,22.918l-4.129-8.289l5.46-2.72l0.72,1.444l-3.843,1.914l0.969,1.944l3.271-1.629l0.719,1.443
			l-3.271,1.629l1.003,2.014l3.843-1.914l0.719,1.444L197.41,22.918z"/>
		<path fill="#654052" d="M212.484,16.419l-2.945-2.867l-1.224,0.438l1.244,3.476l-1.701,0.609l-3.118-8.713l3.414-1.222
			c1.774-0.635,3.261,0.2,3.782,1.656c0.438,1.224-0.037,2.25-0.772,2.857l3.29,3.061L212.484,16.419z M208.588,9.697l-1.604,0.574
			l0.823,2.301l1.604-0.574c0.746-0.267,1.065-0.919,0.824-1.593C209.994,9.732,209.334,9.43,208.588,9.697z"/>
		<path fill="#654052" d="M229.225,12.408c-1.875,0.292-3.563-0.749-3.865-2.688l-0.936-6.013l1.786-0.278l0.925,5.948
			c0.164,1.054,0.879,1.587,1.843,1.438c0.963-0.15,1.495-0.877,1.331-1.931l-0.926-5.948l1.773-0.276l0.936,6.013
			C232.394,10.612,231.101,12.116,229.225,12.408z"/>
		<path fill="#654052" d="M243.666,11.112l-3.84-5.569l0.173,5.682l-1.807,0.055l-0.282-9.256l1.611-0.049l3.84,5.556l-0.173-5.668
			l1.807-0.055l0.282,9.256L243.666,11.112z"/>
		<path fill="#654052" d="M251.117,11.311l0.652-9.235l1.803,0.127l-0.652,9.234L251.117,11.311z"/>
		<path fill="#654052" d="M264.373,13.371l-0.672-0.944c-0.568,0.247-1.212,0.309-1.93,0.188c-1.038-0.175-1.772-0.668-2.305-1.418
			c-0.767-1.079-0.549-2.215-0.282-3.792s0.434-2.722,1.513-3.489c0.749-0.532,1.604-0.757,2.643-0.582
			c1.038,0.176,1.76,0.667,2.292,1.416c0.767,1.079,0.562,2.217,0.295,3.794c-0.231,1.372-0.391,2.386-1.11,3.135l0.65,0.914
			L264.373,13.371z M264.13,5.604c-0.206-0.338-0.571-0.598-1.059-0.68c-0.487-0.082-0.93,0.041-1.235,0.292
			c-0.411,0.326-0.572,0.733-0.869,2.49c-0.297,1.756-0.279,2.194,0.002,2.637c0.207,0.338,0.584,0.6,1.071,0.682
			c0.218,0.037,0.432,0.021,0.618-0.067l-0.663-0.916l1.106-0.775l0.564,0.794c0.209-0.374,0.323-0.895,0.479-1.817
			C264.442,6.487,264.411,6.047,264.13,5.604z"/>
		<path fill="#654052" d="M273.602,15.361c-1.82-0.541-2.899-2.206-2.339-4.088l1.735-5.834l1.732,0.515l-1.717,5.772
			c-0.304,1.022,0.112,1.811,1.048,2.089c0.935,0.278,1.728-0.151,2.031-1.173l1.717-5.772l1.721,0.512l-1.735,5.834
			C277.234,15.098,275.422,15.902,273.602,15.361z"/>
		<path fill="#654052" d="M282.197,18.217l3.672-8.496l5.597,2.419l-0.64,1.479l-3.938-1.702l-0.861,1.993l3.353,1.449l-0.639,1.479
			l-3.354-1.449l-0.893,2.064l3.938,1.702l-0.64,1.479L282.197,18.217z"/>
		<path fill="#654052" d="M302.569,29.241l2.169-3.21l-2.596-1.754l-2.169,3.21l-1.497-1.012l5.182-7.67l1.498,1.012l-2.118,3.135
			l2.596,1.754l2.118-3.135l1.497,1.012l-5.182,7.67L302.569,29.241z"/>
		<path fill="#654052" d="M313.49,36.767c-0.917,0.064-1.755-0.182-2.549-0.873c-0.795-0.69-1.164-1.494-1.229-2.411
			c-0.093-1.321,0.687-2.177,1.735-3.384c1.05-1.207,1.789-2.097,3.109-2.189c0.917-0.064,1.765,0.19,2.559,0.881
			c0.795,0.691,1.154,1.486,1.219,2.403c0.093,1.32-0.677,2.185-1.726,3.392C315.561,35.792,314.811,36.674,313.49,36.767z
			 M316.608,31.14c0-0.396-0.177-0.808-0.55-1.132c-0.372-0.324-0.814-0.45-1.207-0.395c-0.521,0.064-0.871,0.328-2.039,1.672
			c-1.169,1.344-1.382,1.728-1.373,2.252c0,0.396,0.187,0.816,0.56,1.141s0.805,0.441,1.197,0.386
			c0.521-0.064,0.881-0.319,2.049-1.664C316.414,32.056,316.617,31.664,316.608,31.14z"/>
		<path fill="#654052" d="M325.331,39.2l-5.625,5.177l-1.225-1.33l5.626-5.177l-1.638-1.78l1.187-1.091l4.499,4.889l-1.187,1.092
			L325.331,39.2z"/>
		<path fill="#654052" d="M324.564,50.116l7.463-5.476l3.607,4.917l-1.3,0.954l-2.538-3.459l-1.751,1.284l2.161,2.946l-1.3,0.954
			l-2.161-2.946l-1.813,1.331l2.538,3.459l-1.3,0.954L324.564,50.116z"/>
		<path fill="#654052" d="M331.1,59.607l8.028-4.596l0.897,1.567l-6.631,3.795l2.085,3.642l-1.398,0.8L331.1,59.607z"/>
		<path fill="#654052" d="M337.297,71.8c-0.557-1.289-0.705-2.386-0.219-3.587l1.538,0.61c-0.306,0.769-0.17,1.574,0.171,2.362
			c0.423,0.978,1.02,1.343,1.7,1.049c0.298-0.129,0.513-0.321,0.602-0.572c0.083-0.234,0.084-0.461-0.026-0.881l-0.3-1.088
			c-0.208-0.774-0.213-1.409-0.008-1.951c0.23-0.581,0.691-1.021,1.407-1.331c1.516-0.655,3.063,0.008,3.856,1.845
			c0.506,1.169,0.585,2.141,0.196,3.173l-1.492-0.602c0.281-0.759,0.074-1.434-0.169-1.995c-0.381-0.883-1.056-1.101-1.641-0.848
			c-0.215,0.093-0.411,0.262-0.5,0.514c-0.083,0.234-0.096,0.565,0.006,0.932l0.29,1.064c0.228,0.822,0.225,1.404,0.045,1.906
			c-0.233,0.639-0.767,1.11-1.518,1.435C339.589,74.548,338.065,73.579,337.297,71.8z"/>
		<path fill="#654052" d="M342.575,164.191c0.229,0.833,0.038,1.725-0.437,2.562l-1.646,2.906l-8.051-4.563l1.647-2.906
			c0.474-0.837,1.141-1.46,1.974-1.69c1.417-0.392,2.474,0.327,3.684,1.012C340.956,162.198,342.183,162.774,342.575,164.191z
			 M336.571,162.237c-0.481,0.085-0.856,0.351-1.164,0.894l-0.673,1.188l5.246,2.974l0.673-1.188c0.308-0.542,0.344-1,0.169-1.458
			c-0.195-0.499-0.746-0.871-1.967-1.563C337.634,162.392,337.1,162.148,336.571,162.237z"/>
		<path fill="#654052" d="M333.499,179.87l-7.475-5.454l1.064-1.459l6.173,4.504l2.475-3.391l1.302,0.95L333.499,179.87z"/>
		<path fill="#654052" d="M328.078,186.382l-3.938-1.177l-0.882,0.955l2.713,2.505l-1.226,1.328l-6.802-6.279l2.461-2.665
			c1.279-1.385,2.983-1.333,4.12-0.284c0.955,0.882,1.009,2.011,0.64,2.891l4.334,1.189L328.078,186.382z M321.51,182.228
			l-1.155,1.251l1.795,1.658l1.156-1.251c0.537-0.583,0.518-1.309-0.008-1.793C322.772,181.607,322.048,181.645,321.51,182.228z"/>
		<path fill="#654052" d="M318.573,194.574c-0.072,0.917-0.439,1.708-1.24,2.392s-1.65,0.93-2.566,0.857
			c-1.319-0.104-2.051-1.001-3.089-2.218c-1.037-1.216-1.809-2.079-1.704-3.398c0.072-0.917,0.449-1.716,1.25-2.4
			s1.641-0.921,2.557-0.849c1.319,0.104,2.061,0.993,3.099,2.209C317.917,192.383,318.678,193.254,318.573,194.574z
			 M313.471,190.657c-0.392-0.059-0.825,0.055-1.2,0.375c-0.376,0.321-0.565,0.739-0.569,1.135c-0.014,0.524,0.195,0.91,1.352,2.264
			c1.155,1.355,1.503,1.622,2.023,1.691c0.392,0.059,0.835-0.063,1.211-0.384c0.375-0.321,0.556-0.73,0.559-1.127
			c0.015-0.524-0.186-0.918-1.341-2.272C314.349,190.985,313.991,190.726,313.471,190.657z"/>
		<path fill="#654052" d="M307.939,204.125l-1.267,0.816l-4.471-3.798l1.608,5.641l-1.268,0.816l-7.084-6.442l1.584-1.02l4.36,4.131
			l-1.738-5.82l1.136-0.731l4.579,3.991l-1.946-5.686l1.585-1.02L307.939,204.125z"/>
		<path fill="#654052" d="M282.821,217l-3.368-8.626l5.682-2.218l0.587,1.502l-3.998,1.561l0.79,2.023l3.404-1.329l0.587,1.502
			l-3.404,1.329l0.818,2.096l3.998-1.561l0.586,1.502L282.821,217z"/>
		<path fill="#654052" d="M274.33,219.66l-0.968-3.751l-3.034,0.784l0.969,3.751l-1.75,0.452l-2.314-8.963l1.75-0.452l0.946,3.663
			l3.033-0.783l-0.945-3.663l1.75-0.452l2.313,8.963L274.33,219.66z"/>
		<path fill="#654052" d="M259.852,214.875l1.023,7.572l-1.791,0.242l-1.022-7.573l-2.396,0.324l-0.216-1.597l6.581-0.889
			l0.216,1.597L259.852,214.875z"/>
		<path fill="#654052" d="M242.302,222.701c-0.638,0.583-1.521,0.815-2.481,0.771l-3.337-0.153l0.424-9.246l3.337,0.153
			c0.961,0.044,1.818,0.356,2.4,0.995c0.991,1.086,0.829,2.354,0.766,3.744C243.347,220.355,243.389,221.71,242.302,222.701z
			 M241.325,216.462c-0.294-0.391-0.7-0.604-1.324-0.633l-1.363-0.063l-0.276,6.025l1.364,0.063
			c0.623,0.028,1.048-0.147,1.376-0.509c0.357-0.4,0.439-1.06,0.504-2.462C241.669,217.48,241.645,216.894,241.325,216.462z"/>
		<path fill="#654052" d="M227.793,222.303l-2.654-6.221l-0.96,5.601l-1.782-0.305l1.564-9.126l1.59,0.272l2.656,6.208l0.958-5.589
			l1.782,0.306l-1.564,9.126L227.793,222.303z"/>
		<path fill="#654052" d="M212.305,218.841c-1.815-0.552-2.884-2.223-2.313-4.1l1.771-5.82l1.729,0.526l-1.752,5.758
			c-0.311,1.02,0.101,1.811,1.034,2.094c0.933,0.284,1.727-0.14,2.037-1.16l1.752-5.758l1.717,0.522l-1.771,5.82
			C215.938,218.601,214.12,219.394,212.305,218.841z"/>
		<path fill="#654052" d="M202.393,214.238c-0.857,0.331-1.729,0.343-2.692-0.083c-0.963-0.427-1.553-1.086-1.884-1.943
			c-0.477-1.235,0.016-2.282,0.663-3.744c0.647-1.462,1.093-2.531,2.327-3.007c0.857-0.331,1.742-0.338,2.705,0.089
			c0.963,0.426,1.54,1.08,1.871,1.938c0.478,1.235-0.003,2.287-0.65,3.75C204.085,212.698,203.628,213.761,202.393,214.238z
			 M203.717,207.943c-0.117-0.379-0.406-0.72-0.858-0.92c-0.451-0.2-0.911-0.19-1.27-0.022c-0.479,0.214-0.735,0.57-1.457,2.198
			c-0.721,1.628-0.812,2.058-0.648,2.557c0.116,0.378,0.418,0.725,0.869,0.925c0.452,0.2,0.899,0.185,1.259,0.017
			c0.479-0.214,0.747-0.564,1.469-2.193C203.801,208.876,203.88,208.441,203.717,207.943z"/>
		<path fill="#654052" d="M189.332,208.83l0.337-4.097l-1.117-0.666l-1.89,3.172l-1.552-0.925l4.737-7.953l3.116,1.856
			c1.62,0.965,1.922,2.643,1.13,3.972c-0.665,1.117-1.759,1.404-2.696,1.224l-0.266,4.487L189.332,208.83z M192.038,201.543
			l-1.463-0.872l-1.251,2.1l1.463,0.872c0.682,0.406,1.388,0.236,1.754-0.378C192.906,202.651,192.719,201.949,192.038,201.543z"/>
		<path fill="#654052" d="M178.572,201.807l0.567-1.631l-2.605-2.008l-1.443,0.957l-1.494-1.151l8.317-5.278l1.123,0.865
			l-2.972,9.396L178.572,201.807z M180.845,195.319l-2.982,1.954l1.823,1.404L180.845,195.319z"/>
		<path fill="#654052" d="M160.201,184.761l6.866-6.203l1.211,1.34l-5.67,5.123l2.814,3.115l-1.196,1.081L160.201,184.761z"/>
		<path fill="#654052" d="M152.695,175.006l7.507-5.41l1.057,1.465l-6.2,4.468l2.455,3.406l-1.307,0.942L152.695,175.006z"/>
		<path fill="#654052" d="M148.458,168.305l1.162-1.276l-1.606-2.869l-1.702,0.313l-0.92-1.644l9.716-1.583l0.692,1.236
			l-6.422,7.467L148.458,168.305z M153.096,163.236l-3.508,0.624l1.124,2.006L153.096,163.236z"/>
	</g>
	<polygon fill="#654052" stroke="#FFFFFF" stroke-width="4" stroke-miterlimit="10" points="481.424,116.164 246.992,170.038 
		247.424,59.326 	"/>
	<g>
		<path fill="#FFFFFF" d="M290.486,118.152c3.157,0,5.738-1.249,7.742-3.748l4.118,4.242c-3.268,3.68-7.117,5.52-11.551,5.52
			c-4.435,0-8.086-1.4-10.955-4.201s-4.304-6.336-4.304-10.606c0-4.269,1.463-7.832,4.387-10.688
			c2.924-2.855,6.499-4.283,10.728-4.283c4.722,0,8.675,1.799,11.86,5.396l-3.994,4.531c-2.032-2.526-4.559-3.79-7.578-3.79
			c-2.416,0-4.482,0.79-6.197,2.369c-1.717,1.579-2.574,3.707-2.574,6.384s0.81,4.826,2.43,6.446
			C286.217,117.342,288.181,118.152,290.486,118.152z"/>
		<path fill="#FFFFFF" d="M330.557,112.756c0,3.212-1.112,5.917-3.336,8.114c-2.224,2.197-5.018,3.295-8.381,3.295
			s-6.156-1.098-8.38-3.295c-2.225-2.196-3.336-4.901-3.336-8.114c0-3.213,1.111-5.924,3.336-8.135
			c2.224-2.21,5.017-3.316,8.38-3.316s6.157,1.106,8.381,3.316C329.444,106.832,330.557,109.543,330.557,112.756z M313.343,112.756
			c0,1.812,0.515,3.289,1.544,4.428c1.029,1.14,2.348,1.709,3.953,1.709c1.606,0,2.924-0.569,3.954-1.709
			c1.029-1.139,1.544-2.616,1.544-4.428c0-1.813-0.515-3.295-1.544-4.449c-1.03-1.153-2.348-1.73-3.954-1.73
			c-1.605,0-2.924,0.577-3.953,1.73S313.343,110.944,313.343,112.756z"/>
		<path fill="#FFFFFF" d="M354.071,116.937c0,2.183-0.803,3.933-2.409,5.251c-1.606,1.318-3.645,1.977-6.115,1.977
			c-1.647,0-3.363-0.295-5.147-0.886c-1.785-0.59-3.392-1.462-4.818-2.615l2.718-3.872c2.306,1.786,4.763,2.677,7.371,2.677
			c0.796,0,1.428-0.157,1.895-0.474c0.467-0.315,0.7-0.734,0.7-1.256s-0.323-1.002-0.968-1.442
			c-0.646-0.439-1.579-0.851-2.801-1.235c-1.222-0.384-2.155-0.714-2.8-0.989c-0.646-0.274-1.38-0.672-2.203-1.194
			c-1.675-1.043-2.513-2.588-2.513-4.634c0-2.045,0.824-3.713,2.472-5.004c1.646-1.291,3.774-1.936,6.383-1.936
			s5.216,0.879,7.824,2.636l-2.306,4.119c-1.922-1.318-3.837-1.977-5.745-1.977s-2.862,0.522-2.862,1.565
			c0,0.577,0.302,1.03,0.906,1.359c0.604,0.33,1.606,0.714,3.006,1.153c1.4,0.44,2.396,0.776,2.986,1.009
			c0.59,0.233,1.297,0.597,2.121,1.091C353.303,113.196,354.071,114.754,354.071,116.937z"/>
		<path fill="#FFFFFF" d="M370.009,122.188c-5.958,0-8.937-3.185-8.937-9.556v-10.957h6.219v8.979c0,2.197,0.295,3.748,0.885,4.654
			c0.591,0.906,1.606,1.359,3.048,1.359s2.533-0.432,3.274-1.297c0.741-0.865,1.111-2.093,1.111-3.687v-10.05h6.219v18.617
			c0,3.872-1.023,6.892-3.068,9.062c-2.045,2.169-4.674,3.254-7.886,3.254c-2.499,0-4.688-0.632-6.569-1.895
			c-1.881-1.263-3.273-3.076-4.18-5.437l5.313-2.307c1.071,2.91,2.855,4.366,5.354,4.366c1.565,0,2.814-0.584,3.748-1.75
			c0.933-1.167,1.4-2.643,1.4-4.428c0-0.248-0.015-0.495-0.042-0.742C374.168,121.585,372.205,122.188,370.009,122.188z"/>
	</g>
</g>
<g id="logov1_copy_1_">
	<g id="Quirky">
		<polygon fill="none" stroke="#654052" stroke-width="4" stroke-miterlimit="10" points="8.695,113.303 243.127,59.429 
			242.695,170.141 		"/>
		<g id="_x26_">
			<ellipse fill="#FFFFFF" cx="237.611" cy="126.941" rx="13.083" ry="12.157"/>
			<ellipse fill="#FFFFFF" cx="240.861" cy="97.11" rx="8.833" ry="10.013"/>
			<g>
				<path fill="#EF526E" d="M237.854,143.618c-5.382,0-9.966-1.496-13.755-4.49c-3.788-2.993-5.683-7.097-5.683-12.315
					c0-6.205,4.501-11.725,13.508-16.558c-2.253-2.581-3.83-4.696-4.736-6.343s-1.359-3.734-1.359-6.261
					c0-4.393,1.619-7.771,4.859-10.132c3.239-2.361,7.056-3.542,11.449-3.542c4.393,0,8.126,1.126,11.201,3.378
					c3.074,2.252,4.612,5.41,4.612,9.473c0,5.437-4.394,10.573-13.178,15.405c4.392,5.383,7.961,9.501,10.707,12.356
					c1.701-2.525,3.02-5.464,3.953-8.814l6.754,4.778c-1.428,3.79-3.047,7.113-4.859,9.968c2.195,2.252,4.996,4.971,8.401,8.155
					l-6.178,5.767l-7.577-7.497C251.142,141.394,245.102,143.618,237.854,143.618z M230.688,133.279
					c2.087,1.565,4.86,2.348,8.319,2.348s7.138-1.592,11.037-4.778c-5.547-5.821-9.939-10.709-13.179-14.663
					c-6.206,3.35-9.307,7.03-9.307,11.039C227.559,129.696,228.601,131.714,230.688,133.279z M242.096,91.308
					c-1.841,0-3.488,0.577-4.942,1.729c-1.455,1.153-2.183,2.5-2.183,4.037c0,1.538,0.371,2.924,1.112,4.16s2.018,2.953,3.83,5.148
					c6.204-3.075,9.307-5.931,9.307-8.567c0-2.196-0.729-3.831-2.183-4.902C245.582,91.843,243.935,91.308,242.096,91.308z"/>
			</g>
		</g>
		<g id="uirky">
			<g>
				<path fill="#654052" d="M111.182,113.962v-11.863h4.613v21.913h-4.613v-3.995c-0.741,1.346-1.764,2.403-3.068,3.171
					c-1.304,0.769-2.711,1.153-4.221,1.153c-2.471,0-4.468-0.755-5.992-2.266c-1.523-1.51-2.285-3.693-2.285-6.549v-13.428h4.612
					v12.027c0,4.037,1.674,6.055,5.024,6.055c1.592,0,2.979-0.528,4.16-1.586C110.592,117.539,111.182,115.994,111.182,113.962z"/>
				<path fill="#654052" d="M125.225,97.733c-0.577-0.577-0.865-1.263-0.865-2.06c0-0.796,0.288-1.483,0.865-2.06
					s1.263-0.865,2.059-0.865c0.796,0,1.482,0.288,2.059,0.865s0.865,1.264,0.865,2.06c0,0.797-0.288,1.483-0.865,2.06
					s-1.263,0.865-2.059,0.865C126.488,98.598,125.802,98.31,125.225,97.733z M129.549,124.012h-4.612v-21.913h4.612V124.012z"/>
				<path fill="#654052" d="M150.181,106.424c-2.279,0-3.995,0.741-5.148,2.224c-1.153,1.483-1.729,3.474-1.729,5.972v9.391h-4.612
					v-21.913h4.612v4.407c0.741-1.373,1.75-2.498,3.027-3.377c1.276-0.878,2.628-1.332,4.056-1.359l0.042,4.654
					C150.346,106.424,150.263,106.424,150.181,106.424z"/>
				<path fill="#654052" d="M162.124,124.012h-4.612V93.45h4.612v17.958l8.895-9.309h5.93l-8.318,8.691l8.937,13.222h-5.601
					l-6.507-9.597l-3.335,3.377V124.012z"/>
				<path fill="#654052" d="M193.01,128.542c4.063,0,6.095-2.582,6.095-7.744v-1.359c-1.84,1.895-4.188,2.842-7.042,2.842
					c-5.684,0-8.525-3.116-8.525-9.35v-10.792h4.612v8.732c0,2.554,0.391,4.359,1.173,5.417c0.783,1.057,2.128,1.585,4.036,1.585
					s3.301-0.487,4.18-1.462s1.4-2.451,1.565-4.428v-9.886h4.612v18.823c0,3.816-0.996,6.741-2.986,8.773
					c-1.99,2.032-4.564,3.048-7.721,3.048c-2.417,0-4.538-0.577-6.363-1.73c-1.826-1.153-3.15-2.801-3.974-4.942l4.16-1.771
					C187.903,127.128,189.962,128.542,193.01,128.542z"/>
			</g>
		</g>
		<g id="Ellipse_1">
			<g>
				<ellipse fill="#FFFFFF" cx="64.883" cy="107.123" rx="21" ry="18.547"/>
			</g>
		</g>
		<g id="Q">
			<g>
				<path fill="#654052" d="M64.861,83.417c6.853,0,12.607,2.273,17.264,6.821c4.655,4.547,6.984,10.04,6.984,16.475
					c0,6.437-1.922,11.83-5.766,16.179c-3.844,4.35-8.709,6.964-14.595,7.842v7.908h-7.775v-7.908
					c-5.93-0.878-10.806-3.493-14.628-7.842c-3.821-4.35-5.732-9.742-5.732-16.179c0-6.436,2.328-11.928,6.984-16.475
					C52.253,85.69,58.008,83.417,64.861,83.417z M60.973,116.104h7.775v7.381c3.646-0.878,6.622-2.823,8.928-5.833
					c2.306-3.009,3.459-6.656,3.459-10.94c0-4.283-1.571-8.05-4.711-11.302c-3.141-3.251-6.996-4.877-11.564-4.877
					c-4.569,0-8.424,1.626-11.564,4.877c-3.141,3.251-4.711,7.019-4.711,11.302c0,4.284,1.153,7.931,3.459,10.94
					c2.306,3.01,5.282,4.954,8.928,5.833V116.104z"/>
			</g>
		</g>
	</g>
	<g id="Discover_unique_hotels_xA0_Image_1_">
	</g>
</g>
</svg>
