<?xml version="1.0" encoding="utf-8"?>
<!-- Generator: Adobe Illustrator 16.0.0, SVG Export Plug-In . SVG Version: 6.00 Build 0)  -->
<!DOCTYPE svg PUBLIC "-//W3C//DTD SVG 1.1//EN" "http://www.w3.org/Graphics/SVG/1.1/DTD/svg11.dtd">
<svg version="1.1" id="Layer_1" xmlns="http://www.w3.org/2000/svg" xmlns:xlink="http://www.w3.org/1999/xlink" x="0px" y="0px"
	 width="303.05px" height="133.948px" viewBox="0 0 303.05 133.948" enable-background="new 0 0 303.05 133.948"
	 xml:space="preserve">
<g id="Cosy_2_">
	<g>
		<circle fill="none" cx="151.404" cy="66.56" r="60.931"/>
		<path fill="#151843" d="M96.955,37.968c0.168,0.494,0.084,1.039-0.174,1.562l-0.894,1.81l-5.015-2.475l0.893-1.811
			c0.257-0.521,0.639-0.921,1.133-1.088c0.843-0.287,1.504,0.112,2.258,0.483C95.91,36.821,96.669,37.126,96.955,37.968z
			 M93.266,36.996c-0.289,0.068-0.505,0.241-0.672,0.581l-0.365,0.739l3.268,1.612l0.365-0.739c0.167-0.339,0.172-0.617,0.051-0.887
			c-0.135-0.293-0.48-0.499-1.241-0.874S93.581,36.925,93.266,36.996z"/>
		<path fill="#151843" d="M99.379,34.82l-4.747-2.96l0.578-0.927l4.747,2.96L99.379,34.82z"/>
		<path fill="#151843" d="M102.897,29.761c-0.515,0.675-1.049,1.076-1.826,1.175l-0.133-0.991c0.495-0.066,0.879-0.376,1.194-0.788
			c0.391-0.512,0.407-0.934,0.052-1.206c-0.156-0.118-0.321-0.176-0.479-0.148c-0.148,0.024-0.268,0.092-0.456,0.273l-0.484,0.48
			c-0.347,0.339-0.68,0.527-1.026,0.579c-0.375,0.051-0.743-0.062-1.117-0.349c-0.794-0.605-0.901-1.616-0.167-2.578
			c0.466-0.611,0.955-0.939,1.614-1.039l0.124,0.964c-0.483,0.075-0.778,0.384-1.002,0.678c-0.353,0.462-0.267,0.882,0.038,1.115
			c0.112,0.088,0.26,0.14,0.417,0.113c0.148-0.024,0.326-0.117,0.49-0.279l0.476-0.466c0.365-0.363,0.673-0.534,0.992-0.587
			c0.405-0.065,0.812,0.076,1.205,0.377C103.668,27.741,103.607,28.831,102.897,29.761z"/>
		<path fill="#151843" d="M107.55,24.326c-0.425,0.442-0.931,0.652-1.485,0.664c-0.8,0.015-1.292-0.479-1.989-1.148
			c-0.694-0.671-1.21-1.143-1.227-1.941c-0.011-0.555,0.18-1.07,0.603-1.512c0.724-0.753,1.721-0.928,2.701-0.259l-0.768,0.797
			c-0.399-0.23-0.844-0.265-1.226,0.13c-0.206,0.216-0.295,0.467-0.273,0.706c0.021,0.315,0.17,0.546,0.946,1.292
			c0.776,0.744,1.011,0.885,1.329,0.894c0.239,0.014,0.487-0.086,0.693-0.302c0.381-0.396,0.327-0.839,0.082-1.229l0.767-0.797
			C108.409,22.572,108.269,23.58,107.55,24.326z"/>
		<path fill="#151843" d="M113.523,18.091c-0.054,0.553-0.284,1.025-0.775,1.429c-0.492,0.404-1.007,0.544-1.56,0.491
			c-0.796-0.078-1.228-0.627-1.841-1.374c-0.615-0.746-1.07-1.275-0.993-2.072c0.054-0.553,0.291-1.032,0.781-1.436
			c0.492-0.404,1.001-0.539,1.554-0.484c0.795,0.077,1.234,0.621,1.848,1.369C113.151,16.759,113.602,17.294,113.523,18.091z
			 M110.485,15.667c-0.237-0.039-0.499,0.024-0.729,0.214c-0.23,0.189-0.35,0.441-0.356,0.68c-0.014,0.315,0.108,0.551,0.792,1.384
			c0.683,0.831,0.891,0.995,1.204,1.044c0.236,0.039,0.505-0.03,0.735-0.218c0.231-0.189,0.344-0.436,0.351-0.675
			c0.014-0.316-0.103-0.557-0.786-1.388C111.011,15.878,110.798,15.715,110.485,15.667z"/>
		<path fill="#151843" d="M118.653,15.17l-0.686,0.442l-4.588-3.689l0.948-0.616l2.923,2.448l-1.038-3.668l0.956-0.619
			L118.653,15.17z"/>
		<path fill="#151843" d="M122.731,12.756l-2.495-5.009l3.299-1.643l0.435,0.872l-2.322,1.156l0.585,1.175l1.977-0.984l0.435,0.871
			l-1.977,0.984l0.606,1.218l2.322-1.156l0.435,0.872L122.731,12.756z"/>
		<path fill="#151843" d="M131.84,8.829l-1.78-1.732l-0.739,0.264l0.752,2.102l-1.028,0.368l-1.884-5.266l2.063-0.738
			c1.072-0.384,1.97,0.121,2.285,1.001c0.265,0.739-0.022,1.359-0.467,1.726l1.988,1.85L131.84,8.829z M129.485,4.766l-0.969,0.347
			l0.498,1.391l0.969-0.346c0.451-0.162,0.644-0.555,0.498-0.963C130.335,4.788,129.936,4.605,129.485,4.766z"/>
		<path fill="#151843" d="M141.956,6.405c-1.133,0.176-2.153-0.453-2.335-1.625l-0.567-3.633l1.08-0.168l0.559,3.595
			c0.099,0.637,0.532,0.958,1.114,0.868c0.582-0.09,0.904-0.53,0.805-1.167l-0.561-3.594l1.071-0.166l0.565,3.634
			C143.871,5.319,143.089,6.229,141.956,6.405z"/>
		<path fill="#151843" d="M150.683,5.621l-2.321-3.364l0.104,3.433l-1.092,0.033l-0.17-5.593l0.974-0.029l2.32,3.357l-0.105-3.425
			L151.485,0l0.171,5.593L150.683,5.621z"/>
		<path fill="#151843" d="M155.185,5.742l0.395-5.58l1.089,0.077l-0.395,5.579L155.185,5.742z"/>
		<path fill="#151843" d="M163.195,6.987l-0.406-0.571c-0.342,0.149-0.731,0.187-1.166,0.113c-0.627-0.105-1.07-0.403-1.394-0.856
			c-0.462-0.651-0.331-1.338-0.169-2.292c0.162-0.952,0.262-1.645,0.914-2.107c0.453-0.322,0.969-0.458,1.598-0.352
			c0.627,0.106,1.063,0.403,1.385,0.856c0.463,0.652,0.34,1.339,0.178,2.292c-0.139,0.83-0.238,1.442-0.67,1.895l0.393,0.552
			L163.195,6.987z M163.046,2.293c-0.123-0.204-0.342-0.361-0.639-0.41c-0.293-0.05-0.561,0.024-0.744,0.176
			c-0.25,0.197-0.346,0.442-0.525,1.505c-0.182,1.061-0.168,1.325,0.002,1.593c0.125,0.204,0.352,0.363,0.645,0.412
			c0.135,0.022,0.262,0.013,0.374-0.04l-0.401-0.554l0.67-0.468l0.34,0.479c0.127-0.226,0.195-0.541,0.289-1.097
			C163.238,2.827,163.218,2.561,163.046,2.293z"/>
		<path fill="#151843" d="M168.771,8.189c-1.1-0.327-1.75-1.333-1.412-2.47l1.047-3.525l1.047,0.313l-1.037,3.487
			c-0.184,0.618,0.066,1.095,0.635,1.262c0.564,0.168,1.043-0.09,1.225-0.709l1.041-3.487l1.039,0.309l-1.051,3.526
			C170.966,8.03,169.873,8.516,168.771,8.189z"/>
		<path fill="#151843" d="M173.964,9.915l2.221-5.134l3.381,1.462l-0.385,0.894l-2.379-1.028l-0.521,1.204l2.025,0.875l-0.385,0.894
			l-2.027-0.876l-0.541,1.248l2.379,1.027l-0.387,0.894L173.964,9.915z"/>
		<path fill="#151843" d="M186.275,16.576l1.313-1.94l-1.568-1.061l-1.313,1.94l-0.902-0.611l3.131-4.635l0.904,0.611l-1.281,1.896
			l1.57,1.06l1.281-1.896l0.902,0.613l-3.131,4.635L186.275,16.576z"/>
		<path fill="#151843" d="M192.875,21.124c-0.555,0.04-1.059-0.109-1.539-0.528c-0.48-0.415-0.703-0.901-0.742-1.456
			c-0.059-0.798,0.414-1.315,1.047-2.045c0.635-0.729,1.08-1.267,1.879-1.322c0.555-0.039,1.066,0.114,1.545,0.533
			c0.482,0.416,0.699,0.896,0.738,1.45c0.057,0.798-0.41,1.321-1.043,2.052C194.126,20.535,193.673,21.068,192.875,21.124z
			 M194.759,17.725c0-0.239-0.105-0.488-0.332-0.685c-0.225-0.196-0.492-0.272-0.729-0.239c-0.314,0.039-0.527,0.197-1.232,1.012
			c-0.707,0.812-0.836,1.044-0.83,1.36c0,0.239,0.113,0.492,0.338,0.689c0.225,0.195,0.488,0.267,0.725,0.232
			c0.314-0.037,0.529-0.191,1.236-1.005C194.642,18.277,194.765,18.041,194.759,17.725z"/>
		<path fill="#151843" d="M200.029,22.595l-3.398,3.129l-0.74-0.804l3.4-3.129l-0.99-1.075l0.717-0.66l2.719,2.955l-0.717,0.659
			L200.029,22.595z"/>
		<path fill="#151843" d="M199.568,29.191l4.51-3.311l2.18,2.972l-0.787,0.576l-1.533-2.09l-1.059,0.776l1.305,1.779l-0.785,0.576
			l-1.305-1.78l-1.096,0.806l1.533,2.09l-0.785,0.576L199.568,29.191z"/>
		<path fill="#151843" d="M203.517,34.926l4.85-2.777l0.543,0.947l-4.008,2.294l1.262,2.2l-0.846,0.483L203.517,34.926z"/>
		<path fill="#151843" d="M207.261,42.293c-0.336-0.778-0.426-1.44-0.133-2.167l0.93,0.368c-0.184,0.465-0.104,0.951,0.104,1.427
			c0.256,0.593,0.617,0.813,1.025,0.634c0.182-0.077,0.314-0.192,0.365-0.344c0.053-0.143,0.053-0.279-0.014-0.533l-0.184-0.658
			c-0.125-0.466-0.127-0.851-0.004-1.178c0.139-0.351,0.418-0.617,0.85-0.804c0.916-0.396,1.852,0.004,2.33,1.113
			c0.307,0.707,0.354,1.294,0.119,1.918l-0.902-0.363c0.172-0.46,0.047-0.867-0.102-1.206c-0.23-0.533-0.639-0.665-0.992-0.513
			c-0.129,0.058-0.248,0.159-0.303,0.312c-0.051,0.141-0.057,0.341,0.006,0.563l0.174,0.644c0.137,0.495,0.137,0.848,0.027,1.15
			c-0.141,0.388-0.463,0.671-0.916,0.868C208.648,43.954,207.724,43.37,207.261,42.293z"/>
		<path fill="#151843" d="M210.451,98.123c0.141,0.503,0.023,1.043-0.264,1.549l-0.996,1.757l-4.863-2.758l0.996-1.756
			c0.285-0.506,0.688-0.883,1.191-1.021c0.855-0.238,1.494,0.197,2.227,0.611C209.472,96.919,210.214,97.267,210.451,98.123z
			 M206.824,96.942c-0.289,0.051-0.518,0.213-0.705,0.541l-0.404,0.718l3.17,1.798l0.404-0.718c0.189-0.328,0.209-0.604,0.104-0.882
			c-0.117-0.301-0.451-0.526-1.189-0.943C207.466,97.036,207.142,96.889,206.824,96.942z"/>
		<path fill="#151843" d="M204.966,107.599l-4.516-3.297l0.643-0.881l3.73,2.722l1.494-2.051l0.787,0.574L204.966,107.599z"/>
		<path fill="#151843" d="M201.691,111.533l-2.381-0.712l-0.531,0.577l1.639,1.514l-0.742,0.803l-4.109-3.795l1.486-1.609
			c0.773-0.837,1.803-0.806,2.49-0.172c0.578,0.533,0.609,1.215,0.387,1.747l2.619,0.719L201.691,111.533z M197.722,109.022
			l-0.699,0.756l1.086,1.002l0.699-0.756c0.324-0.352,0.313-0.791-0.006-1.084C198.484,108.646,198.046,108.67,197.722,109.022z"/>
		<path fill="#151843" d="M195.947,116.481c-0.041,0.555-0.266,1.032-0.75,1.447c-0.484,0.413-0.996,0.562-1.549,0.517
			c-0.797-0.063-1.24-0.604-1.865-1.34c-0.627-0.734-1.096-1.257-1.031-2.052c0.043-0.556,0.271-1.039,0.756-1.451
			c0.482-0.412,0.99-0.557,1.545-0.513c0.797,0.063,1.246,0.6,1.873,1.335C195.548,115.159,196.009,115.686,195.947,116.481z
			 M192.865,114.115c-0.238-0.035-0.498,0.034-0.725,0.227c-0.229,0.194-0.344,0.447-0.346,0.687
			c-0.008,0.316,0.119,0.55,0.818,1.368s0.908,0.98,1.221,1.022c0.24,0.035,0.504-0.039,0.732-0.233
			c0.227-0.193,0.336-0.44,0.338-0.681c0.01-0.316-0.111-0.555-0.809-1.372C193.394,114.314,193.177,114.157,192.865,114.115z"/>
		<path fill="#151843" d="M189.521,122.255l-0.766,0.492l-2.703-2.296l0.973,3.41l-0.766,0.492l-4.283-3.893l0.959-0.616
			l2.635,2.496l-1.051-3.517l0.688-0.441l2.766,2.411l-1.176-3.436l0.959-0.617L189.521,122.255z"/>
		<path fill="#151843" d="M174.343,130.034l-2.035-5.212l3.434-1.342l0.354,0.908l-2.416,0.944l0.48,1.223l2.055-0.804l0.354,0.908
			l-2.055,0.803l0.494,1.267l2.414-0.944l0.355,0.907L174.343,130.034z"/>
		<path fill="#151843" d="M169.212,131.643l-0.586-2.267l-1.832,0.473l0.586,2.266l-1.059,0.273l-1.396-5.415l1.057-0.274
			l0.57,2.214l1.832-0.473l-0.568-2.214l1.057-0.272l1.396,5.417L169.212,131.643z"/>
		<path fill="#151843" d="M160.462,128.751l0.618,4.574l-1.082,0.146l-0.617-4.576l-1.446,0.195l-0.131-0.965l3.977-0.537
			l0.129,0.965L160.462,128.751z"/>
		<path fill="#151843" d="M149.858,133.48c-0.387,0.352-0.919,0.491-1.5,0.465l-2.016-0.093l0.255-5.587l2.017,0.093
			c0.581,0.026,1.098,0.216,1.45,0.601c0.6,0.656,0.502,1.423,0.463,2.264C150.49,132.062,150.515,132.881,149.858,133.48z
			 M149.268,129.709c-0.178-0.236-0.423-0.364-0.8-0.382l-0.823-0.038l-0.167,3.641l0.824,0.038
			c0.376,0.017,0.633-0.089,0.831-0.308c0.215-0.241,0.265-0.641,0.305-1.487C149.475,130.325,149.461,129.97,149.268,129.709z"/>
		<path fill="#151843" d="M141.09,133.238l-1.603-3.759l-0.58,3.385l-1.077-0.184l0.944-5.515l0.961,0.163l1.604,3.751l0.58-3.377
			l1.077,0.186l-0.946,5.514L141.09,133.238z"/>
		<path fill="#151843" d="M131.732,131.146c-1.097-0.333-1.744-1.343-1.398-2.478l1.07-3.517l1.044,0.317l-1.059,3.48
			c-0.188,0.616,0.061,1.094,0.625,1.265c0.563,0.172,1.043-0.084,1.231-0.701l1.059-3.479l1.038,0.314l-1.071,3.518
			C133.927,131.002,132.829,131.481,131.732,131.146z"/>
		<path fill="#151843" d="M125.742,128.365c-0.518,0.2-1.045,0.209-1.627-0.05s-0.938-0.656-1.138-1.174
			c-0.289-0.746,0.009-1.378,0.401-2.262c0.39-0.884,0.66-1.53,1.406-1.817c0.517-0.2,1.051-0.204,1.634,0.054
			c0.582,0.258,0.93,0.653,1.129,1.171c0.29,0.746-0.001,1.382-0.392,2.266C126.764,127.435,126.488,128.077,125.742,128.365z
			 M126.542,124.562c-0.07-0.229-0.245-0.435-0.518-0.557c-0.273-0.12-0.551-0.113-0.769-0.012c-0.289,0.129-0.443,0.344-0.88,1.327
			c-0.436,0.984-0.491,1.245-0.391,1.546c0.07,0.229,0.252,0.438,0.525,0.559c0.273,0.122,0.542,0.112,0.76,0.01
			c0.29-0.129,0.452-0.339,0.888-1.324C126.592,125.126,126.64,124.862,126.542,124.562z"/>
		<path fill="#151843" d="M117.85,125.098l0.204-2.477l-0.674-0.402l-1.143,1.916l-0.938-0.559l2.863-4.806l1.882,1.122
			c0.979,0.583,1.161,1.597,0.683,2.4c-0.4,0.675-1.063,0.848-1.628,0.74l-0.162,2.71L117.85,125.098z M119.485,120.694
			l-0.884-0.526l-0.756,1.268l0.884,0.527c0.414,0.246,0.839,0.143,1.06-0.229C120.009,121.364,119.896,120.939,119.485,120.694z"/>
		<path fill="#151843" d="M111.348,120.854l0.343-0.985l-1.574-1.214l-0.873,0.579l-0.901-0.696l5.025-3.188l0.678,0.522
			l-1.795,5.678L111.348,120.854z M112.721,116.934l-1.802,1.18l1.102,0.85L112.721,116.934z"/>
		<path fill="#151843" d="M100.247,110.554l4.149-3.749l0.732,0.811l-3.426,3.095l1.699,1.883l-0.722,0.653L100.247,110.554z"/>
		<path fill="#151843" d="M95.711,104.658l4.536-3.269l0.639,0.885l-3.746,2.7l1.483,2.058l-0.791,0.569L95.711,104.658z"/>
		<path fill="#151843" d="M93.15,100.609l0.702-0.771l-0.97-1.732l-1.028,0.189l-0.556-0.994l5.871-0.956l0.417,0.746l-3.88,4.512
			L93.15,100.609z M95.953,97.546l-2.121,0.377l0.679,1.212L95.953,97.546z"/>
	</g>
	<polygon fill="#EC2635" stroke="#FFFFFF" stroke-width="4" stroke-miterlimit="10" points="294.355,69.103 152.693,101.657 
		152.953,34.756 	"/>
	<g>
		<path fill="#FFFFFF" d="M180.974,70.303c1.908,0,3.469-0.754,4.68-2.265l2.486,2.563c-1.975,2.225-4.299,3.336-6.979,3.336
			s-4.887-0.846-6.621-2.538c-1.732-1.692-2.6-3.829-2.6-6.409c0-2.579,0.883-4.732,2.65-6.459c1.768-1.725,3.926-2.587,6.482-2.587
			c2.854,0,5.242,1.086,7.168,3.261l-2.414,2.737c-1.229-1.526-2.756-2.291-4.578-2.291c-1.459,0-2.709,0.478-3.746,1.432
			s-1.555,2.24-1.555,3.857c0,1.618,0.49,2.916,1.469,3.896C178.394,69.813,179.582,70.303,180.974,70.303z"/>
		<path fill="#FFFFFF" d="M205.189,67.043c0,1.94-0.674,3.575-2.018,4.903c-1.342,1.326-3.033,1.99-5.064,1.99
			s-3.719-0.664-5.063-1.99c-1.346-1.328-2.016-2.962-2.016-4.903s0.67-3.58,2.016-4.916c1.344-1.336,3.031-2.004,5.063-2.004
			s3.723,0.668,5.064,2.004C204.515,63.463,205.189,65.102,205.189,67.043z M194.787,67.043c0,1.095,0.311,1.987,0.934,2.675
			c0.621,0.689,1.42,1.033,2.389,1.033c0.971,0,1.768-0.344,2.389-1.033c0.621-0.688,0.936-1.58,0.936-2.675
			c0-1.096-0.314-1.991-0.936-2.689c-0.621-0.696-1.418-1.044-2.389-1.044c-0.969,0-1.768,0.348-2.389,1.044
			C195.097,65.052,194.787,65.947,194.787,67.043z"/>
		<path fill="#FFFFFF" d="M219.396,69.568c0,1.321-0.484,2.378-1.453,3.173c-0.971,0.798-2.203,1.196-3.695,1.196
			c-0.996,0-2.031-0.179-3.111-0.536c-1.078-0.356-2.047-0.884-2.91-1.579l1.645-2.34c1.391,1.079,2.877,1.617,4.453,1.617
			c0.48,0,0.861-0.096,1.145-0.286c0.281-0.19,0.424-0.444,0.424-0.76c0-0.314-0.195-0.605-0.586-0.871s-0.953-0.516-1.693-0.746
			c-0.738-0.231-1.303-0.432-1.693-0.598c-0.389-0.165-0.834-0.406-1.33-0.721c-1.012-0.63-1.518-1.563-1.518-2.801
			c0-1.235,0.498-2.243,1.492-3.024c0.996-0.779,2.283-1.17,3.857-1.17c1.576,0,3.152,0.531,4.729,1.594l-1.393,2.488
			c-1.162-0.795-2.32-1.194-3.473-1.194c-1.154,0-1.729,0.314-1.729,0.945c0,0.349,0.182,0.622,0.547,0.82
			c0.365,0.2,0.969,0.433,1.816,0.698c0.846,0.265,1.447,0.467,1.805,0.608c0.355,0.141,0.783,0.36,1.281,0.66
			C218.935,67.309,219.396,68.25,219.396,69.568z"/>
		<path fill="#FFFFFF" d="M229.029,72.741c-3.6,0-5.4-1.924-5.4-5.773v-6.621h3.758v5.426c0,1.327,0.18,2.265,0.537,2.812
			c0.355,0.548,0.967,0.821,1.838,0.821c0.875,0,1.533-0.262,1.98-0.783c0.445-0.522,0.67-1.265,0.67-2.229V60.32h3.758v11.25
			c0,2.34-0.617,4.164-1.852,5.476c-1.236,1.311-2.826,1.967-4.768,1.967c-1.508,0-2.832-0.382-3.969-1.145
			c-1.135-0.765-1.977-1.86-2.525-3.287l3.211-1.394c0.646,1.758,1.727,2.639,3.234,2.639c0.945,0,1.701-0.354,2.266-1.059
			s0.846-1.598,0.846-2.676c0-0.149-0.008-0.299-0.025-0.448C231.542,72.378,230.355,72.741,229.029,72.741z"/>
	</g>
</g>
<g id="logov1_copy_3_">
	<g id="Quirky_2_">
		<polygon fill="none" stroke="#1B1246" stroke-width="4" stroke-miterlimit="10" points="8.695,67.373 150.357,34.819 
			150.096,101.719 		"/>
		<g id="_x26__2_">
			<ellipse fill="#FFFFFF" cx="147.023" cy="75.614" rx="7.905" ry="7.346"/>
			<ellipse fill="#FFFFFF" cx="148.755" cy="66.305" rx="5.104" ry="16.655"/>
			<g>
				<g>
					<path fill="#1B1246" d="M162.697,87.189c-0.255,0-0.509-0.097-0.703-0.289l-3.919-3.878c-2.974,2.436-6.637,3.669-10.904,3.669
						c-3.468,0-6.473-0.985-8.932-2.929c-2.531-2-3.815-4.768-3.815-8.227c0-3.864,2.56-7.319,7.614-10.283
						c-0.987-1.194-1.721-2.225-2.188-3.072c-0.627-1.142-0.945-2.577-0.945-4.268c0-2.98,1.126-5.312,3.348-6.93
						c2.123-1.548,4.648-2.333,7.507-2.333c2.857,0,5.334,0.752,7.359,2.236c2.12,1.551,3.195,3.749,3.195,6.53
						c0,3.429-2.501,6.651-7.439,9.589c1.846,2.242,3.446,4.099,4.778,5.546c0.654-1.178,1.188-2.503,1.594-3.955
						c0.087-0.313,0.321-0.564,0.628-0.674c0.109-0.039,0.223-0.058,0.335-0.058c0.204,0,0.406,0.063,0.577,0.184l4.082,2.888
						c0.372,0.263,0.52,0.743,0.358,1.169c-0.774,2.056-1.651,3.911-2.611,5.526c1.218,1.227,2.728,2.684,4.5,4.342
						c0.202,0.189,0.316,0.454,0.316,0.731c0,0.276-0.115,0.541-0.317,0.73l-3.734,3.484
						C163.187,87.1,162.942,87.189,162.697,87.189z M146.334,70.396c-2.912,1.71-4.386,3.521-4.386,5.39
						c0.001,1.171,0.489,2.105,1.492,2.857c1.079,0.811,2.568,1.221,4.426,1.221c1.599,0,3.338-0.674,5.181-2.004
						C150.34,74.997,148.087,72.492,146.334,70.396z M149.733,55.081c-0.887,0-1.661,0.271-2.365,0.83
						c-0.633,0.501-0.94,1.042-0.94,1.654c0,0.753,0.173,1.407,0.528,1.999c0.35,0.584,0.928,1.378,1.722,2.367
						c3.917-2.063,4.36-3.415,4.36-3.918c0-0.999-0.299-1.705-0.913-2.156C151.416,55.335,150.634,55.081,149.733,55.081z"/>
					<path fill="#FFFFFF" d="M149.758,49.65c2.654,0,4.91,0.682,6.769,2.043c1.857,1.359,2.786,3.269,2.786,5.724
						c0,3.286-2.655,6.389-7.962,9.309c2.653,3.253,4.811,5.741,6.469,7.467c1.029-1.526,1.824-3.302,2.389-5.326l4.082,2.888
						c-0.863,2.29-1.841,4.298-2.938,6.022c1.328,1.361,3.021,3.004,5.078,4.929l-3.734,3.484l-4.578-4.53
						c-2.918,2.688-6.569,4.032-10.948,4.032c-3.252,0-6.022-0.903-8.312-2.713c-2.289-1.809-3.435-4.289-3.435-7.442
						c0-3.749,2.72-7.084,8.163-10.005c-1.361-1.56-2.313-2.838-2.861-3.832c-0.547-0.996-0.821-2.257-0.821-3.785
						c0-2.654,0.978-4.695,2.937-6.122C144.796,50.365,147.104,49.65,149.758,49.65 M148.414,63.189
						c3.749-1.857,5.625-3.582,5.625-5.176c0-1.326-0.441-2.315-1.32-2.962c-0.878-0.646-1.873-0.971-2.985-0.971
						c-1.113,0-2.107,0.35-2.986,1.047c-0.879,0.695-1.319,1.51-1.319,2.438c0,0.93,0.223,1.768,0.671,2.514
						C146.547,60.826,147.32,61.864,148.414,63.189 M147.866,80.864c2.09,0,4.314-0.963,6.669-2.889
						c-3.352-3.518-6.005-6.471-7.963-8.86c-3.75,2.025-5.624,4.248-5.624,6.671c0.001,1.493,0.631,2.712,1.892,3.657
						C144.101,80.391,145.776,80.864,147.866,80.864 M149.758,47.65c-3.075,0-5.799,0.85-8.097,2.526
						c-2.458,1.791-3.758,4.467-3.758,7.738c0,1.86,0.359,3.458,1.068,4.749c0.379,0.688,0.9,1.459,1.575,2.331
						c-4.729,3.027-7.124,6.566-7.124,10.542c0,3.78,1.412,6.813,4.195,9.012c2.64,2.086,5.854,3.144,9.552,3.144
						c4.173,0,7.805-1.123,10.824-3.342l3.295,3.262c0.39,0.385,0.898,0.578,1.407,0.578c0.489,0,0.979-0.179,1.364-0.538
						l3.734-3.484c0.405-0.378,0.636-0.906,0.636-1.46c0-0.555-0.229-1.084-0.634-1.462c-1.51-1.413-2.827-2.679-3.934-3.777
						c0.838-1.5,1.608-3.178,2.298-5.009c0.321-0.852,0.027-1.813-0.716-2.338l-4.082-2.888c-0.343-0.242-0.747-0.367-1.155-0.367
						c-0.226,0-0.452,0.038-0.67,0.116c-0.613,0.218-1.082,0.72-1.257,1.347c-0.243,0.873-0.535,1.695-0.873,2.464
						c-0.908-1.022-1.922-2.205-3.033-3.541c4.605-2.975,6.938-6.277,6.938-9.835c0-3.074-1.247-5.611-3.604-7.337
						C155.508,48.468,152.833,47.65,149.758,47.65L149.758,47.65z M148.941,60.649c-0.501-0.649-0.878-1.185-1.127-1.599
						c-0.26-0.433-0.386-0.918-0.386-1.485c0-0.127,0-0.426,0.56-0.869c0.53-0.42,1.084-0.615,1.746-0.615
						c0.689,0,1.26,0.185,1.799,0.581c0.152,0.112,0.506,0.373,0.506,1.352C152.039,58.024,151.89,58.973,148.941,60.649
						L148.941,60.649z M147.866,78.864c-1.637,0-2.924-0.343-3.825-1.02c-0.756-0.567-1.093-1.202-1.093-2.06
						c0-1.576,1.519-2.999,3.179-4.084c1.487,1.747,3.288,3.75,5.38,5.981C150.203,78.468,148.984,78.864,147.866,78.864
						L147.866,78.864z"/>
				</g>
			</g>
		</g>
		<g id="uirky_2_">
			<g>
				<path fill="#1B1246" d="M70.626,67.771v-7.169h2.786v13.242h-2.786V71.43c-0.448,0.813-1.067,1.453-1.854,1.916
					c-0.788,0.466-1.639,0.697-2.551,0.697c-1.495,0-2.701-0.456-3.621-1.369c-0.921-0.914-1.381-2.231-1.381-3.959v-8.113h2.788
					v7.268c0,2.439,1.011,3.658,3.034,3.658c0.964,0,1.801-0.318,2.514-0.958C70.269,69.933,70.626,68.999,70.626,67.771z"/>
				<path fill="#1B1246" d="M79.111,57.964c-0.348-0.349-0.522-0.763-0.522-1.244c0-0.48,0.174-0.896,0.522-1.246
					c0.349-0.347,0.763-0.521,1.244-0.521s0.896,0.175,1.244,0.521c0.349,0.35,0.523,0.766,0.523,1.246
					c0,0.481-0.174,0.895-0.523,1.244c-0.348,0.35-0.763,0.523-1.244,0.523S79.46,58.313,79.111,57.964z M81.724,73.845h-2.786
					V60.603h2.786V73.845z"/>
				<path fill="#1B1246" d="M94.192,63.217c-1.377,0-2.414,0.447-3.111,1.344c-0.697,0.896-1.044,2.1-1.044,3.609v5.675H87.25
					V60.603h2.787v2.663c0.446-0.829,1.057-1.51,1.828-2.04c0.771-0.531,1.588-0.805,2.452-0.821l0.025,2.813
					C94.292,63.217,94.241,63.217,94.192,63.217z"/>
				<path fill="#1B1246" d="M101.409,73.845h-2.787V55.376h2.787v10.853l5.375-5.626h3.583l-5.027,5.251l5.401,7.99h-3.386
					l-3.932-5.799l-2.015,2.04L101.409,73.845L101.409,73.845z"/>
				<path fill="#1B1246" d="M120.072,76.581c2.456,0,3.684-1.56,3.684-4.679v-0.821c-1.112,1.146-2.531,1.717-4.255,1.717
					c-3.436,0-5.151-1.882-5.151-5.65v-6.521h2.787v5.276c0,1.543,0.236,2.633,0.708,3.273c0.473,0.639,1.286,0.958,2.439,0.958
					s1.995-0.294,2.525-0.883c0.531-0.591,0.847-1.482,0.946-2.678v-5.973h2.786v11.374c0,2.305-0.601,4.073-1.804,5.3
					c-1.203,1.229-2.758,1.843-4.667,1.843c-1.46,0-2.741-0.348-3.844-1.046c-1.104-0.696-1.903-1.691-2.402-2.985l2.514-1.07
					C116.986,75.728,118.23,76.581,120.072,76.581z"/>
			</g>
		</g>
		<g id="Ellipse_1_2_">
			<g>
				<ellipse fill="#FFFFFF" cx="42.648" cy="63.639" rx="12.69" ry="11.208"/>
			</g>
		</g>
		<g id="Q_2_">
			<g>
				<g>
					<path fill="#1B1246" d="M42.635,50.313c4.141,0,7.617,1.373,10.432,4.121c2.813,2.749,4.22,6.067,4.22,9.956
						c0,3.89-1.161,7.149-3.485,9.776c-2.323,2.63-5.263,4.209-8.819,4.738v4.779h-4.697v-4.779
						c-3.584-0.529-6.531-2.11-8.839-4.738s-3.464-5.887-3.464-9.776s1.407-7.207,4.221-9.956
						C35.016,51.687,38.494,50.313,42.635,50.313z M40.286,70.065h4.697v4.46c2.204-0.53,4.001-1.704,5.395-3.524
						c1.395-1.818,2.09-4.021,2.09-6.61c0-2.588-0.949-4.863-2.847-6.829c-1.897-1.964-4.226-2.948-6.986-2.948
						c-2.762,0-5.091,0.984-6.989,2.948c-1.897,1.965-2.846,4.241-2.846,6.829c0,2.59,0.696,4.793,2.09,6.61
						c1.395,1.82,3.192,2.994,5.396,3.524V70.065L40.286,70.065z"/>
				</g>
			</g>
		</g>
	</g>
</g>
<g>
</g>
<g>
</g>
<g>
</g>
<g>
</g>
<g>
</g>
<g>
</g>
</svg>
