<?xml version="1.0" encoding="utf-8"?>
<!-- Generator: Adobe Illustrator 16.0.0, SVG Export Plug-In . SVG Version: 6.00 Build 0)  -->
<!DOCTYPE svg PUBLIC "-//W3C//DTD SVG 1.1//EN" "http://www.w3.org/Graphics/SVG/1.1/DTD/svg11.dtd">
<svg version="1.1" id="Layer_1" xmlns="http://www.w3.org/2000/svg" xmlns:xlink="http://www.w3.org/1999/xlink" x="0px" y="0px"
	 width="115.536px" height="94.55px" viewBox="0 0 115.536 94.55" enable-background="new 0 0 115.536 94.55" xml:space="preserve">
<path fill="#EC2A36" d="M64.736,21.242c0.124-0.005,0.249-0.012,0.375-0.015c4.521-0.069,8.556,2.086,11.065,5.455L82.453,0
	L64.736,21.242z"/>
<g>
	<rect x="41.1" y="24.589" fill="none" width="55.4" height="51.384"/>
	<path fill="#1A1345" d="M68.666,53.199c0.734-1.856,1.103-3.636,1.103-5.339c0-0.541-0.349-0.851-1.044-0.929l-1.857-0.116v-4.526
		h12.245v4.701l-3.192,0.115c0,3.715-0.813,7.119-2.438,10.214c1.741,1.472,4.179,3.328,7.313,5.571l-3.83,5.049
		c-2.321-1.548-4.759-3.365-7.313-5.455c-2.863,2.864-6.731,4.295-11.606,4.295s-8.435-1.141-10.678-3.424
		c-2.244-2.282-3.366-5.068-3.366-8.357c0-5.106,2.359-9.13,7.08-12.07c-1.2-1.974-1.799-4.101-1.799-6.384
		c0-2.939,0.987-5.319,2.96-7.139c1.973-1.818,4.749-2.727,8.328-2.727c3.578,0,7.07,0.793,10.475,2.379v8.763l-5.919,0.406v-3.54
		c0-1.082-0.406-1.76-1.219-2.031c-1.044-0.309-2.07-0.464-3.075-0.464c-3.135,0-4.701,1.489-4.701,4.469
		C56.131,40.606,60.309,46.119,68.666,53.199z M64.777,58.423c-4.643-3.946-8.144-7.506-10.503-10.679
		c-2.36,1.664-3.54,3.928-3.54,6.79c0,1.973,0.609,3.569,1.828,4.788c1.219,1.219,3.153,1.828,5.804,1.828
		C61.015,61.15,63.152,60.241,64.777,58.423z"/>
</g>
<path fill="#191244" d="M54.159,73.009c-4.613,0.071-8.735-2.116-11.317-5.536L36.475,94.55l17.976-21.554
	C54.354,73,54.257,73.007,54.159,73.009z"/>
<g>
	<path fill="#1A1345" d="M29.904,44.834c0,4.128-0.872,7.52-2.616,10.176c-1.745,2.656-4.265,4.416-7.56,5.279v0.145
		c2.464,0.129,4.816,0.864,7.056,2.208c1.6,0.991,3.472,1.488,5.616,1.488c0.48,0,0.976-0.032,1.488-0.097l-0.576,4.608
		c-0.449,0.032-0.88,0.048-1.296,0.048l-4.752-0.816c-2.016-0.703-3.984-1.504-5.904-2.399c-2.176-1.024-4.192-1.536-6.048-1.536
		c-0.896,0-1.792,0.096-2.688,0.288l0.672-3.456C5.68,59.779,1.872,54.467,1.872,44.834c0-2.943,0.432-5.527,1.296-7.752
		c0.864-2.224,2.016-3.943,3.456-5.16c2.815-2.464,6.12-3.696,9.912-3.696s6.967,1.344,9.528,4.032
		C28.624,34.947,29.904,39.139,29.904,44.834z M7.872,44.595c0,7.937,2.751,11.904,8.256,11.904c2.944,0,5.023-1.217,6.24-3.648
		c1.056-2.144,1.584-4.768,1.584-7.872c0-2.784-0.497-5.344-1.488-7.68c-0.512-1.28-1.32-2.288-2.424-3.024
		c-1.104-0.735-2.537-1.104-4.296-1.104c-1.76,0-3.272,0.576-4.536,1.728c-1.265,1.152-2.136,2.544-2.616,4.176
		S7.872,42.547,7.872,44.595z"/>
</g>
<g>
	<path fill="#1A1345" d="M107.568,33.141c-0.352-0.607-1.664-0.912-3.936-0.912c-2.977,0-5.232,1.008-6.768,3.024
		c-1.537,2.016-2.305,4.928-2.305,8.736c0,7.905,2.959,11.856,8.88,11.856c0.097,0,0.521,0,1.272,0s1.464-0.104,2.136-0.313
		c0.672-0.207,1.071-0.424,1.2-0.647c0.127-0.224,0.191-0.576,0.191-1.056v-3.84l4.896,0.336v8.303
		c-2.496,1.313-5.664,1.969-9.504,1.969c-4.896,0-8.633-1.375-11.208-4.128c-2.577-2.752-3.864-6.848-3.864-12.288
		c0-3.007,0.432-5.632,1.296-7.872c0.864-2.239,2.032-3.984,3.505-5.232c2.879-2.4,6.303-3.6,10.271-3.6
		c3.199,0,6.207,0.656,9.023,1.968v8.16l-4.896,0.336v-3.744C107.761,33.717,107.696,33.365,107.568,33.141z"/>
</g>
<g>
</g>
<g>
</g>
<g>
</g>
<g>
</g>
<g>
</g>
<g>
</g>
</svg>
