<?xml version="1.0" encoding="utf-8"?>
<!-- Generator: Adobe Illustrator 16.0.0, SVG Export Plug-In . SVG Version: 6.00 Build 0)  -->
<!DOCTYPE svg PUBLIC "-//W3C//DTD SVG 1.1//EN" "http://www.w3.org/Graphics/SVG/1.1/DTD/svg11.dtd">
<svg version="1.1" id="Layer_1" xmlns="http://www.w3.org/2000/svg" xmlns:xlink="http://www.w3.org/1999/xlink" x="0px" y="0px"
	 width="375.15px" height="172.048px" viewBox="0 0 375.15 172.048" enable-background="new 0 0 375.15 172.048"
	 xml:space="preserve">
<path fill="#EC2A36" d="M210.476,52.76c0.311-0.013,0.619-0.033,0.93-0.038c11.23-0.174,21.254,5.185,27.488,13.551L254.482,0
	L210.476,52.76z"/>
<g>
	<rect y="64.225" fill="none" width="375.15" height="51.384"/>
	<path fill="#1A1345" d="M36.155,86.394c0,4.991-1.054,9.092-3.163,12.303c-2.109,3.212-5.156,5.339-9.141,6.384v0.174
		c2.979,0.155,5.823,1.045,8.531,2.67c1.934,1.199,4.197,1.799,6.79,1.799c0.58,0,1.18-0.039,1.799-0.116l-0.696,5.571
		c-0.542,0.038-1.064,0.059-1.567,0.059l-5.746-0.986c-2.437-0.852-4.816-1.819-7.138-2.902c-2.631-1.238-5.069-1.856-7.312-1.856
		c-1.083,0-2.167,0.115-3.25,0.348l0.813-4.179C6.867,104.462,2.263,98.04,2.263,86.394c0-3.56,0.522-6.683,1.567-9.372
		c1.045-2.689,2.438-4.769,4.179-6.239c3.404-2.979,7.399-4.468,11.984-4.468c4.584,0,8.424,1.625,11.52,4.875
		C34.607,74.439,36.155,79.508,36.155,86.394z M9.518,86.104c0,9.596,3.327,14.392,9.982,14.392c3.559,0,6.073-1.47,7.544-4.41
		c1.277-2.592,1.916-5.765,1.916-9.518c0-3.366-0.601-6.461-1.799-9.285c-0.619-1.547-1.596-2.766-2.931-3.656
		c-1.335-0.89-3.067-1.335-5.194-1.335c-2.128,0-3.957,0.696-5.484,2.09c-1.529,1.393-2.583,3.075-3.163,5.049
		C9.808,81.403,9.518,83.628,9.518,86.104z"/>
	<path fill="#1A1345" d="M71.207,101.018v4.585h-9.401v-3.772c-2.128,3.018-5.262,4.527-9.401,4.527
		c-5.998,0-8.995-3.347-8.995-10.04V82.912c0-1.044-0.484-1.586-1.451-1.625l-1.857-0.116v-4.758h10.214v18.396
		c0,2.051,0.29,3.598,0.871,4.643c0.58,1.044,1.779,1.566,3.598,1.566c1.818,0,3.279-0.561,4.381-1.683s1.654-2.476,1.654-4.063
		V83.028c0-0.618-0.107-1.054-0.319-1.306c-0.213-0.251-0.59-0.396-1.132-0.436l-1.857-0.116v-4.758h10.214v22.749
		c0,0.619,0.096,1.035,0.29,1.247c0.193,0.214,0.581,0.358,1.161,0.436L71.207,101.018z"/>
	<path fill="#1A1345" d="M85.25,76.413v24.374l3.308,0.174v4.643H74.746v-4.41l1.915-0.175c1.122-0.116,1.683-0.734,1.683-1.856
		V83.028c0-0.657-0.107-1.103-0.319-1.335c-0.213-0.231-0.59-0.348-1.131-0.348l-2.031-0.116v-4.816H85.25z M77.938,71.392
		c-0.813-0.792-1.219-1.808-1.219-3.046c0-1.238,0.406-2.272,1.219-3.105c0.813-0.832,1.876-1.248,3.192-1.248
		c1.315,0,2.388,0.416,3.221,1.248c0.832,0.833,1.248,1.867,1.248,3.105c0,1.239-0.417,2.254-1.248,3.046
		c-0.833,0.794-1.906,1.189-3.221,1.189C79.814,72.582,78.75,72.186,77.938,71.392z"/>
	<path fill="#1A1345" d="M95.521,99.103V83.028c0-0.618-0.107-1.054-0.319-1.306c-0.213-0.251-0.59-0.396-1.131-0.436l-2.438-0.174
		v-4.7h9.808v4.353c0.696-1.51,1.779-2.757,3.25-3.743c1.47-0.987,3.163-1.48,5.078-1.48c1.916,0,3.743,0.427,5.484,1.277v8.646
		l-5.397,0.406v-2.67c0-0.773-0.194-1.257-0.581-1.45c-0.426-0.193-0.948-0.29-1.567-0.29c-1.548,0-2.814,0.551-3.801,1.653
		c-0.986,1.103-1.48,2.506-1.48,4.208v13.464l5.049,0.231v4.585H91.923v-4.41l1.915-0.175c0.581-0.077,1.006-0.241,1.277-0.493
		C95.385,100.274,95.521,99.799,95.521,99.103z"/>
	<path fill="#1A1345" d="M120.592,99.103V70.841c0-0.619-0.107-1.045-0.319-1.277c-0.213-0.231-0.59-0.367-1.131-0.406l-2.031-0.116
		v-4.816h10.33v25.129c2.127-0.193,3.984-0.851,5.571-1.974c1.586-1.121,2.669-2.592,3.25-4.41c0.116-0.387,0.174-0.696,0.174-0.929
		c0-0.657-0.368-0.986-1.103-0.986l-2.206-0.116v-4.526h12.013v4.7l-2.786,0.116c-0.503,3.946-2.206,7.061-5.107,9.344l5.687,10.214
		l3.54,0.174v4.643h-8.473l-6.616-12.071c-1.277,0.349-2.593,0.62-3.946,0.813v6.442h0.058l3.308,0.174v4.643h-13.812v-4.41
		l1.915-0.175c0.581-0.077,1.006-0.241,1.277-0.493C120.456,100.274,120.592,99.799,120.592,99.103z"/>
	<path fill="#1A1345" d="M170.617,104.5v-4.411c-2.129,3.019-5.262,4.527-9.402,4.527c-5.998,0-8.995-3.347-8.995-10.04V82.912
		c0-1.044-0.484-1.586-1.451-1.625l-1.857-0.116v-4.758h10.214v16.655c0,2.051,0.29,3.598,0.871,4.643
		c0.58,1.045,1.779,1.567,3.597,1.567s3.279-0.561,4.383-1.684c1.102-1.121,1.654-2.476,1.654-4.063V83.028
		c0-0.657-0.107-1.111-0.32-1.363s-0.59-0.378-1.131-0.378l-1.857-0.116v-4.758h10.213V104.5c0,4.681-1.131,8.104-3.395,10.271
		s-5.688,3.25-10.271,3.25c-4.584,0-8.154-0.638-10.707-1.915v-8.066l5.513-0.465v2.786c0,1.045,0.483,1.75,1.451,2.118
		c0.967,0.367,2.301,0.552,4.005,0.552C168.121,113.032,170.617,110.188,170.617,104.5z"/>
	<path fill="#1A1345" d="M219.771,92.835c0.734-1.856,1.102-3.636,1.102-5.339c0-0.541-0.348-0.851-1.045-0.929l-1.857-0.116v-4.526
		h12.246v4.701l-3.191,0.115c0,3.715-0.813,7.119-2.438,10.214c1.74,1.472,4.178,3.328,7.313,5.571l-3.83,5.049
		c-2.322-1.548-4.76-3.365-7.313-5.455c-2.865,2.864-6.732,4.295-11.607,4.295s-8.435-1.141-10.678-3.424
		c-2.244-2.282-3.366-5.068-3.366-8.357c0-5.106,2.359-9.13,7.08-12.07c-1.199-1.974-1.799-4.101-1.799-6.384
		c0-2.939,0.986-5.319,2.96-7.139c1.973-1.818,4.748-2.727,8.328-2.727c3.578,0,7.068,0.793,10.475,2.379v8.763l-5.92,0.406v-3.54
		c0-1.082-0.406-1.76-1.219-2.031c-1.045-0.309-2.07-0.464-3.076-0.464c-3.133,0-4.701,1.489-4.701,4.469
		C207.234,80.243,211.414,85.755,219.771,92.835z M215.882,98.059c-4.643-3.946-8.145-7.506-10.504-10.679
		c-2.361,1.664-3.541,3.928-3.541,6.79c0,1.973,0.609,3.569,1.828,4.788c1.219,1.219,3.152,1.828,5.803,1.828
		S214.257,99.877,215.882,98.059z"/>
	<path fill="#1A1345" d="M270.548,73.163c-0.426-0.734-2.012-1.103-4.758-1.103c-3.598,0-6.326,1.219-8.184,3.655
		c-1.857,2.438-2.785,5.959-2.785,10.563c0,9.557,3.578,14.334,10.736,14.334c0.115,0,0.629,0,1.537,0s1.771-0.125,2.584-0.377
		c0.811-0.251,1.295-0.513,1.449-0.783s0.232-0.696,0.232-1.277v-4.643l5.92,0.406v10.04c-3.018,1.587-6.848,2.38-11.49,2.38
		c-5.92,0-10.438-1.663-13.551-4.991c-3.115-3.327-4.672-8.279-4.672-14.856c0-3.637,0.521-6.81,1.566-9.518
		s2.457-4.817,4.236-6.326c3.482-2.901,7.621-4.352,12.42-4.352c3.867,0,7.504,0.793,10.91,2.379v9.865l-5.92,0.406v-4.526
		C270.781,73.859,270.703,73.433,270.548,73.163z"/>
	<path fill="#1A1345" d="M282.097,90.979c0-2.863,0.426-5.349,1.275-7.458c0.852-2.108,1.992-3.723,3.426-4.846
		c2.746-2.089,5.783-3.134,9.111-3.134c2.32,0,4.283,0.377,5.889,1.132c1.605,0.754,2.863,1.625,3.773,2.611
		c0.908,0.986,1.682,2.419,2.32,4.295c0.639,1.877,0.959,4.091,0.959,6.645c0,5.339-1.297,9.383-3.889,12.129
		c-2.594,2.748-5.91,4.12-9.953,4.12s-7.207-1.306-9.488-3.917C283.238,99.945,282.097,96.085,282.097,90.979z M295.445,101.367
		c4.217,0,6.326-3.404,6.326-10.214c0-3.443-0.475-6.055-1.422-7.835c-0.949-1.779-2.535-2.669-4.76-2.669s-3.859,0.852-4.904,2.553
		c-1.043,1.703-1.566,4.024-1.566,6.965c0,5.455,1.006,8.879,3.018,10.271C293.027,101.057,294.128,101.367,295.445,101.367z"/>
	<path fill="#1A1345" d="M327.943,80.823c-0.928-0.349-2.051-0.522-3.365-0.522c-1.316,0-2.371,0.3-3.164,0.899
		c-0.793,0.601-1.189,1.335-1.189,2.205c0,0.871,0.146,1.548,0.436,2.031c0.291,0.484,0.744,0.899,1.363,1.248
		c0.967,0.503,2.129,0.938,3.482,1.306c1.354,0.368,2.359,0.658,3.018,0.87c0.658,0.214,1.48,0.571,2.467,1.074
		s1.73,1.045,2.234,1.625c1.354,1.432,2.031,3.27,2.031,5.513c0,2.902-1.055,5.175-3.162,6.819
		c-2.109,1.645-4.789,2.467-8.039,2.467c-4.721,0-8.279-0.601-10.678-1.8v-8.066l5.223-0.406v2.786c0,1.702,1.625,2.553,4.875,2.553
		s4.875-1.18,4.875-3.54c0-0.851-0.281-1.547-0.842-2.089c-0.561-0.541-1.111-0.908-1.654-1.103
		c-0.541-0.193-1.189-0.387-1.943-0.58s-1.49-0.387-2.205-0.581c-0.717-0.192-1.49-0.454-2.322-0.783
		c-0.832-0.328-1.75-0.803-2.756-1.422c-1.973-1.276-2.959-3.414-2.959-6.413c0-2.997,1.063-5.31,3.191-6.935
		c2.127-1.625,4.807-2.438,8.037-2.438s6.432,0.774,9.605,2.321v6.964l-5.223,0.406v-2.438
		C329.279,81.83,328.833,81.17,327.943,80.823z"/>
	<path fill="#1A1345" d="M360.267,104.5v-4.411c-2.127,3.019-5.262,4.527-9.4,4.527c-5.998,0-8.996-3.347-8.996-10.04V82.912
		c0-1.044-0.484-1.586-1.451-1.625l-1.855-0.116v-4.758h10.213v16.655c0,2.051,0.291,3.598,0.871,4.643s1.779,1.567,3.598,1.567
		s3.279-0.561,4.381-1.684c1.104-1.121,1.654-2.476,1.654-4.063V83.028c0-0.657-0.107-1.111-0.318-1.363
		c-0.213-0.252-0.592-0.378-1.133-0.378l-1.857-0.116v-4.758h10.215V104.5c0,4.681-1.131,8.104-3.395,10.271
		s-5.688,3.25-10.271,3.25c-4.586,0-8.154-0.638-10.709-1.915v-8.066l5.514-0.465v2.786c0,1.045,0.484,1.75,1.451,2.118
		c0.967,0.367,2.301,0.552,4.004,0.552C357.773,113.032,360.267,110.188,360.267,104.5z"/>
</g>
<path fill="#191244" d="M212.453,119.948c-11.158,0.174-21.126-5.114-27.37-13.389l-15.401,65.489l43.476-52.129
	C212.923,119.928,212.689,119.945,212.453,119.948z"/>
<g>
	<path d="M14.47,139.953c-0.54,0.541-1.319,0.805-2.207,0.805H9.265v-8.539h2.999c0.888,0,1.667,0.264,2.207,0.803
		c0.924,0.924,0.864,2.171,0.864,3.406S15.394,139.03,14.47,139.953z M13.583,133.957c-0.36-0.396-0.84-0.576-1.451-0.576h-1.571
		v6.213h1.571c0.611,0,1.091-0.18,1.451-0.576c0.444-0.491,0.456-1.414,0.456-2.59S14.027,134.449,13.583,133.957z"/>
	<path d="M17.857,140.757v-8.539h1.295v8.539H17.857z"/>
	<path d="M24.252,140.829c-1.284,0-2.207-0.3-3.022-1.128l0.863-0.851c0.624,0.624,1.308,0.815,2.183,0.815
		c1.115,0,1.763-0.48,1.763-1.307c0-0.373-0.108-0.685-0.335-0.889c-0.216-0.203-0.432-0.287-0.936-0.359l-1.007-0.145
		c-0.696-0.096-1.248-0.336-1.619-0.684c-0.42-0.395-0.624-0.936-0.624-1.631c0-1.486,1.08-2.506,2.854-2.506
		c1.127,0,1.919,0.287,2.651,0.971l-0.828,0.816c-0.528-0.504-1.14-0.66-1.859-0.66c-1.008,0-1.56,0.576-1.56,1.331
		c0,0.312,0.096,0.588,0.324,0.792c0.216,0.191,0.563,0.336,0.959,0.396l0.971,0.144c0.792,0.121,1.235,0.313,1.595,0.637
		c0.468,0.407,0.696,1.02,0.696,1.75C27.322,139.894,26.039,140.829,24.252,140.829z"/>
	<path d="M32.424,140.829c-0.888,0-1.655-0.323-2.243-0.911c-0.84-0.84-0.828-1.787-0.828-3.43c0-1.644-0.012-2.592,0.828-3.431
		c0.587-0.588,1.355-0.911,2.243-0.911c1.571,0,2.747,0.923,3.046,2.626h-1.319c-0.204-0.863-0.78-1.463-1.727-1.463
		c-0.504,0-0.959,0.192-1.259,0.516c-0.42,0.456-0.516,0.947-0.516,2.663c0,1.715,0.096,2.206,0.516,2.662
		c0.3,0.324,0.755,0.516,1.259,0.516c0.947,0,1.535-0.6,1.739-1.463h1.308C35.182,139.906,33.971,140.829,32.424,140.829z"/>
	<path d="M42.814,139.917c-0.587,0.588-1.343,0.911-2.254,0.911c-0.912,0-1.655-0.323-2.243-0.911
		c-0.84-0.84-0.828-1.787-0.828-3.43c0-1.644-0.012-2.592,0.828-3.431c0.587-0.588,1.331-0.911,2.243-0.911
		c0.911,0,1.667,0.323,2.254,0.911c0.84,0.839,0.816,1.787,0.816,3.431C43.63,138.13,43.654,139.078,42.814,139.917z
		 M41.831,133.836c-0.3-0.323-0.768-0.527-1.271-0.527c-0.504,0-0.972,0.204-1.271,0.527c-0.42,0.456-0.504,0.936-0.504,2.651
		c0,1.715,0.084,2.194,0.504,2.65c0.3,0.323,0.768,0.527,1.271,0.527c0.503,0,0.971-0.204,1.271-0.527
		c0.42-0.456,0.504-0.936,0.504-2.65C42.334,134.772,42.25,134.292,41.831,133.836z"/>
	<path d="M48.792,140.757h-1.008l-2.806-8.539h1.343l1.967,6.212l1.967-6.212h1.367L48.792,140.757z"/>
	<path d="M53.401,140.757v-8.539h5.457v1.162h-4.162v2.495h3.55v1.151h-3.55v2.566h4.162v1.164H53.401z"/>
	<path d="M65.95,140.757l-1.799-3.599h-1.619v3.599h-1.295v-8.539h3.311c1.619,0,2.65,1.043,2.65,2.494
		c0,1.223-0.744,2.002-1.703,2.267l1.967,3.778H65.95z M64.451,133.38h-1.919v2.676h1.919c0.864,0,1.451-0.492,1.451-1.332
		S65.315,133.38,64.451,133.38z"/>
	<path d="M76.103,140.829c-1.739,0-3.059-1.187-3.059-2.95v-5.66h1.295v5.6c0,1.141,0.696,1.848,1.763,1.848
		s1.775-0.707,1.775-1.848v-5.6h1.295v5.66C79.173,139.642,77.842,140.829,76.103,140.829z"/>
	<path d="M87.118,140.757l-3.946-6.01v6.01h-1.295v-8.539h1.188l3.946,5.996v-5.996h1.295v8.539H87.118z"/>
	<path d="M91.14,140.757v-8.539h1.295v8.539H91.14z"/>
	<path d="M100.665,141.14l-0.851-0.852c-0.492,0.348-1.116,0.54-1.787,0.54c-0.912,0-1.655-0.323-2.243-0.911
		c-0.839-0.84-0.827-1.787-0.827-3.43c0-1.644-0.012-2.592,0.827-3.431c0.588-0.588,1.332-0.911,2.243-0.911
		c0.911,0,1.667,0.323,2.254,0.911c0.84,0.839,0.816,1.787,0.816,3.431c0,1.451,0.012,2.338-0.552,3.105l0.839,0.828L100.665,141.14
		z M99.298,133.836c-0.3-0.323-0.768-0.527-1.271-0.527c-0.504,0-0.972,0.204-1.271,0.527c-0.42,0.456-0.504,0.936-0.504,2.651
		c0,1.715,0.084,2.194,0.504,2.65c0.3,0.323,0.768,0.527,1.271,0.527c0.324,0,0.624-0.096,0.875-0.275l-0.899-0.9l0.719-0.719
		l0.828,0.827c0.216-0.433,0.252-1.007,0.252-2.11C99.802,134.772,99.718,134.292,99.298,133.836z"/>
	<path d="M106.547,140.829c-1.739,0-3.059-1.187-3.059-2.95v-5.66h1.295v5.6c0,1.141,0.695,1.848,1.763,1.848
		c1.067,0,1.775-0.707,1.775-1.848v-5.6h1.295v5.66C109.617,139.642,108.286,140.829,106.547,140.829z"/>
	<path d="M112.32,140.757v-8.539h5.457v1.162h-4.162v2.495h3.55v1.151h-3.55v2.566h4.162v1.164H112.32z"/>
	<path d="M128.397,140.757v-3.73h-3.466v3.73h-1.295v-8.539h1.295v3.645h3.466v-3.645h1.295v8.539H128.397z"/>
	<path d="M137.541,139.917c-0.587,0.588-1.343,0.911-2.254,0.911c-0.912,0-1.655-0.323-2.243-0.911
		c-0.839-0.84-0.827-1.787-0.827-3.43c0-1.644-0.012-2.592,0.827-3.431c0.588-0.588,1.332-0.911,2.243-0.911
		c0.911,0,1.667,0.323,2.254,0.911c0.84,0.839,0.816,1.787,0.816,3.431C138.357,138.13,138.381,139.078,137.541,139.917z
		 M136.558,133.836c-0.3-0.323-0.768-0.527-1.271-0.527c-0.504,0-0.972,0.204-1.271,0.527c-0.42,0.456-0.504,0.936-0.504,2.651
		c0,1.715,0.084,2.194,0.504,2.65c0.3,0.323,0.768,0.527,1.271,0.527c0.503,0,0.971-0.204,1.271-0.527
		c0.42-0.456,0.504-0.936,0.504-2.65C137.062,134.772,136.978,134.292,136.558,133.836z"/>
	<path d="M143.53,133.38v7.377h-1.295v-7.377h-2.351v-1.162h5.997v1.162H143.53z"/>
	<path d="M147.959,140.757v-8.539h5.457v1.162h-4.162v2.495h3.55v1.151h-3.55v2.566h4.162v1.164H147.959z"/>
	<path d="M155.795,140.757v-8.539h1.296v7.375h4.113v1.164H155.795z"/>
	<path d="M165.55,140.829c-1.283,0-2.206-0.3-3.022-1.128l0.864-0.851c0.623,0.624,1.307,0.815,2.183,0.815
		c1.115,0,1.763-0.48,1.763-1.307c0-0.373-0.107-0.685-0.336-0.889c-0.216-0.203-0.432-0.287-0.936-0.359l-1.007-0.145
		c-0.696-0.096-1.247-0.336-1.619-0.684c-0.42-0.395-0.624-0.936-0.624-1.631c0-1.486,1.08-2.506,2.854-2.506
		c1.128,0,1.919,0.287,2.65,0.971l-0.827,0.816c-0.527-0.504-1.14-0.66-1.859-0.66c-1.007,0-1.559,0.576-1.559,1.331
		c0,0.312,0.096,0.588,0.323,0.792c0.216,0.191,0.564,0.336,0.96,0.396l0.972,0.144c0.791,0.121,1.235,0.313,1.595,0.637
		c0.468,0.407,0.695,1.02,0.695,1.75C168.621,139.894,167.337,140.829,165.55,140.829z"/>
</g>
<g>
	<path d="M218.497,140.757l-0.587-1.715h-3.371l-0.588,1.715h-1.379l3.131-8.539h1.043l3.131,8.539H218.497z M216.253,134.149
		l-1.33,3.79h2.626L216.253,134.149z"/>
	<path d="M221.691,140.757v-8.539h1.296v7.375h4.114v1.164H221.691z"/>
	<path d="M229.179,140.757v-8.539h1.295v7.375h4.114v1.164H229.179z"/>
	<path d="M245.052,140.757l-0.588-1.715h-3.369l-0.588,1.715h-1.38l3.13-8.539h1.044l3.13,8.539H245.052z M242.81,134.149
		l-1.332,3.79h2.627L242.81,134.149z"/>
	<path d="M252.96,140.757l-1.799-3.598h-1.619v3.598h-1.295v-8.539h3.311c1.618,0,2.65,1.043,2.65,2.494
		c0,1.224-0.744,2.003-1.703,2.268l1.967,3.777H252.96z M251.461,133.381h-1.919v2.675h1.919c0.864,0,1.451-0.492,1.451-1.332
		C252.913,133.885,252.326,133.381,251.461,133.381z"/>
	<path d="M261.72,139.917c-0.588,0.588-1.344,0.912-2.254,0.912c-0.912,0-1.656-0.324-2.243-0.912
		c-0.84-0.84-0.827-1.787-0.827-3.43s-0.013-2.591,0.827-3.43c0.587-0.588,1.331-0.912,2.243-0.912c0.91,0,1.666,0.324,2.254,0.912
		c0.84,0.839,0.816,1.787,0.816,3.43S262.56,139.078,261.72,139.917z M260.737,133.837c-0.3-0.324-0.768-0.527-1.271-0.527
		c-0.504,0-0.973,0.203-1.271,0.527c-0.42,0.455-0.504,0.936-0.504,2.65s0.084,2.195,0.504,2.65
		c0.299,0.324,0.768,0.527,1.271,0.527c0.503,0,0.971-0.203,1.271-0.527c0.42-0.455,0.504-0.936,0.504-2.65
		S261.157,134.292,260.737,133.837z"/>
	<path d="M267.986,140.83c-1.739,0-3.059-1.188-3.059-2.951v-5.66h1.295v5.601c0,1.14,0.696,1.847,1.764,1.847
		s1.775-0.707,1.775-1.847v-5.601h1.295v5.66C271.056,139.642,269.724,140.83,267.986,140.83z"/>
	<path d="M279,140.757l-3.945-6.009v6.009h-1.295v-8.539h1.188l3.945,5.996v-5.996h1.295v8.539H279z"/>
	<path d="M288.228,139.954c-0.54,0.54-1.319,0.804-2.207,0.804h-2.998v-8.539h2.998c0.888,0,1.667,0.264,2.207,0.803
		c0.924,0.924,0.863,2.172,0.863,3.406C289.091,137.664,289.152,139.031,288.228,139.954z M287.34,133.957
		c-0.36-0.396-0.84-0.575-1.451-0.575h-1.571v6.212h1.571c0.611,0,1.091-0.18,1.451-0.575c0.444-0.491,0.456-1.415,0.456-2.591
		C287.796,135.252,287.785,134.449,287.34,133.957z"/>
	<path d="M297.985,133.381v7.376h-1.296v-7.376h-2.35v-1.163h5.996v1.163H297.985z"/>
	<path d="M307.175,140.757v-3.73h-3.466v3.73h-1.296v-8.539h1.296v3.646h3.466v-3.646h1.295v8.539H307.175z"/>
	<path d="M311.306,140.757v-8.539h5.457v1.163h-4.162v2.495h3.551v1.15h-3.551v2.566h4.162v1.164H311.306z"/>
	<path d="M329.59,140.757h-1.128l-1.738-5.984l-1.727,5.984h-1.128l-2.231-8.539h1.367l1.488,6.104l1.715-6.104h1.043l1.715,6.104
		l1.488-6.104h1.367L329.59,140.757z"/>
	<path d="M338.567,139.917c-0.587,0.588-1.343,0.912-2.255,0.912c-0.911,0-1.654-0.324-2.242-0.912
		c-0.84-0.84-0.828-1.787-0.828-3.43s-0.012-2.591,0.828-3.43c0.588-0.588,1.331-0.912,2.242-0.912c0.912,0,1.668,0.324,2.255,0.912
		c0.84,0.839,0.815,1.787,0.815,3.43S339.407,139.078,338.567,139.917z M337.583,133.837c-0.3-0.324-0.768-0.527-1.271-0.527
		s-0.971,0.203-1.271,0.527c-0.42,0.455-0.504,0.936-0.504,2.65s0.084,2.195,0.504,2.65c0.301,0.324,0.768,0.527,1.271,0.527
		s0.972-0.203,1.271-0.527c0.42-0.455,0.504-0.936,0.504-2.65S338.003,134.292,337.583,133.837z"/>
	<path d="M346.619,140.757l-1.799-3.598h-1.619v3.598h-1.295v-8.539h3.311c1.619,0,2.65,1.043,2.65,2.494
		c0,1.224-0.744,2.003-1.703,2.268l1.967,3.777H346.619z M345.121,133.381h-1.92v2.675h1.92c0.863,0,1.451-0.492,1.451-1.332
		C346.572,133.885,345.984,133.381,345.121,133.381z"/>
	<path d="M350.366,140.757v-8.539h1.296v7.375h4.113v1.164H350.366z"/>
	<path d="M363.059,139.954c-0.539,0.54-1.319,0.804-2.207,0.804h-2.998v-8.539h2.998c0.888,0,1.668,0.264,2.207,0.803
		c0.924,0.924,0.863,2.172,0.863,3.406C363.922,137.664,363.983,139.031,363.059,139.954z M362.171,133.957
		c-0.359-0.396-0.839-0.575-1.451-0.575h-1.57v6.212h1.57c0.612,0,1.092-0.18,1.451-0.575c0.444-0.491,0.456-1.415,0.456-2.591
		C362.627,135.252,362.616,134.449,362.171,133.957z"/>
</g>
<g>
</g>
<g>
</g>
<g>
</g>
<g>
</g>
<g>
</g>
<g>
</g>
</svg>
